G04 Layer_Color=65535*
%FSLAX25Y25*%
%MOIN*%
G70*
G01*
G75*
%ADD12C,0.01000*%
%ADD29C,0.00787*%
%ADD30C,0.01575*%
%ADD31C,0.00984*%
%ADD32C,0.02362*%
%ADD33C,0.00591*%
%ADD34C,0.00800*%
%ADD35R,0.04724X0.11811*%
D12*
X81233Y109930D02*
G03*
X81055Y120502I8137J5425D01*
G01*
X27165Y22047D02*
G03*
X27165Y22047I-7087J0D01*
G01*
X338058Y57787D02*
G03*
X338236Y47215I-8137J-5425D01*
G01*
X205915Y117717D02*
G03*
X205915Y117717I-8277J0D01*
G01*
X190945Y59055D02*
X192913D01*
X185039D02*
X187008D01*
X185039Y82677D02*
X189370D01*
X185039Y59055D02*
Y82677D01*
X187008Y59055D02*
X190945D01*
X192913D02*
Y82677D01*
X189370D02*
X192913D01*
X173622Y82677D02*
X175591D01*
X179528D02*
X181496D01*
X177165Y59055D02*
X181496D01*
Y82677D01*
X175591D02*
X179528D01*
X173622Y59055D02*
Y82677D01*
Y59055D02*
X177165D01*
X161811Y82677D02*
X163779D01*
X167717D02*
X169685D01*
X165354Y59055D02*
X169685D01*
Y82677D01*
X163779D02*
X167717D01*
X161811Y59055D02*
Y82677D01*
Y59055D02*
X165354D01*
X94488Y58661D02*
X98032D01*
X94488D02*
Y82284D01*
X96457D02*
X100394D01*
X102362Y58661D02*
Y82284D01*
X98032Y58661D02*
X102362D01*
X100394Y82284D02*
X102362D01*
X94488D02*
X96457D01*
X107480D02*
X109449D01*
X113386D02*
X115354D01*
X111024Y58661D02*
X115354D01*
Y82284D01*
X109449D02*
X113386D01*
X107480Y58661D02*
Y82284D01*
Y58661D02*
X111024D01*
X120472Y82284D02*
X122441D01*
X126378D02*
X128347D01*
X124016Y58661D02*
X128347D01*
Y82284D01*
X122441D02*
X126378D01*
X120472Y58661D02*
Y82284D01*
Y58661D02*
X124016D01*
X134252Y82284D02*
X136221D01*
X140157D02*
X142126D01*
X137795Y58661D02*
X142126D01*
Y82284D01*
X136221D02*
X140157D01*
X134252Y58661D02*
Y82284D01*
Y58661D02*
X137795D01*
X148425Y82284D02*
X150394D01*
X154331D02*
X156299D01*
X151969Y58661D02*
X156299D01*
Y82284D01*
X150394D02*
X154331D01*
X148425Y58661D02*
Y82284D01*
Y58661D02*
X151969D01*
X79528Y58661D02*
X83071D01*
X79528D02*
Y82284D01*
X81496D02*
X85433D01*
X87402Y58661D02*
Y82284D01*
X83071Y58661D02*
X87402D01*
X85433Y82284D02*
X87402D01*
X79528D02*
X81496D01*
X136221Y178347D02*
X138189D01*
X142126D02*
X144095D01*
X139764Y154724D02*
X144095D01*
Y178347D01*
X138189D02*
X142126D01*
X136221Y154724D02*
Y178347D01*
Y154724D02*
X139764D01*
X122199Y178347D02*
X124168D01*
X128105D02*
X130073D01*
X125743Y154724D02*
X130073D01*
Y178347D01*
X124168D02*
X128105D01*
X122199Y154724D02*
Y178347D01*
Y154724D02*
X125743D01*
X165354Y127165D02*
X167323D01*
X171260D02*
X173228D01*
X168898Y103543D02*
X173228D01*
Y127165D01*
X167323D02*
X171260D01*
X165354Y103543D02*
Y127165D01*
Y103543D02*
X168898D01*
X102362Y117323D02*
Y121260D01*
X100394Y119291D02*
X104331D01*
X81102Y109843D02*
Y120472D01*
X316929Y46457D02*
Y50394D01*
X314961Y48425D02*
X318898D01*
X338189Y47244D02*
Y57874D01*
X177165Y127165D02*
X179134D01*
X183071D02*
X185039D01*
X180709Y103543D02*
X185039D01*
Y127165D01*
X179134D02*
X183071D01*
X177165Y103543D02*
Y127165D01*
Y103543D02*
X180709D01*
X380770Y38069D02*
X379771Y39069D01*
X377771D01*
X376772Y38069D01*
Y34071D01*
X377771Y33071D01*
X379771D01*
X380770Y34071D01*
X382770Y33071D02*
X384769D01*
X383769D01*
Y39069D01*
X382770Y38069D01*
X351637D02*
X350637Y39069D01*
X348638D01*
X347638Y38069D01*
Y34071D01*
X348638Y33071D01*
X350637D01*
X351637Y34071D01*
X357635Y33071D02*
X353636D01*
X357635Y37070D01*
Y38069D01*
X356635Y39069D01*
X354636D01*
X353636Y38069D01*
X165022Y55786D02*
X164023Y56786D01*
X162023D01*
X161024Y55786D01*
Y51787D01*
X162023Y50787D01*
X164023D01*
X165022Y51787D01*
X167022Y55786D02*
X168021Y56786D01*
X170021D01*
X171020Y55786D01*
Y54786D01*
X170021Y53786D01*
X169021D01*
X170021D01*
X171020Y52787D01*
Y51787D01*
X170021Y50787D01*
X168021D01*
X167022Y51787D01*
X187070Y55392D02*
X186070Y56392D01*
X184071D01*
X183071Y55392D01*
Y51393D01*
X184071Y50394D01*
X186070D01*
X187070Y51393D01*
X192068Y50394D02*
Y56392D01*
X189069Y53393D01*
X193068D01*
X199668Y71927D02*
X198668Y72927D01*
X196669D01*
X195669Y71927D01*
Y67929D01*
X196669Y66929D01*
X198668D01*
X199668Y67929D01*
X205666Y72927D02*
X201667D01*
Y69928D01*
X203667Y70928D01*
X204666D01*
X205666Y69928D01*
Y67929D01*
X204666Y66929D01*
X202667D01*
X201667Y67929D01*
X98093Y90825D02*
X97093Y91825D01*
X95094D01*
X94095Y90825D01*
Y86826D01*
X95094Y85827D01*
X97093D01*
X98093Y86826D01*
X104091Y91825D02*
X102092Y90825D01*
X100093Y88826D01*
Y86826D01*
X101092Y85827D01*
X103092D01*
X104091Y86826D01*
Y87826D01*
X103092Y88826D01*
X100093D01*
X111466Y90803D02*
X110466Y91802D01*
X108467D01*
X107467Y90803D01*
Y86804D01*
X108467Y85804D01*
X110466D01*
X111466Y86804D01*
X113465Y91802D02*
X117464D01*
Y90803D01*
X113465Y86804D01*
Y85804D01*
X124458Y90803D02*
X123459Y91802D01*
X121459D01*
X120459Y90803D01*
Y86804D01*
X121459Y85804D01*
X123459D01*
X124458Y86804D01*
X126458Y90803D02*
X127457Y91802D01*
X129456D01*
X130456Y90803D01*
Y89803D01*
X129456Y88803D01*
X130456Y87804D01*
Y86804D01*
X129456Y85804D01*
X127457D01*
X126458Y86804D01*
Y87804D01*
X127457Y88803D01*
X126458Y89803D01*
Y90803D01*
X127457Y88803D02*
X129456D01*
X138238Y90803D02*
X137238Y91802D01*
X135239D01*
X134239Y90803D01*
Y86804D01*
X135239Y85804D01*
X137238D01*
X138238Y86804D01*
X140237D02*
X141237Y85804D01*
X143236D01*
X144236Y86804D01*
Y90803D01*
X143236Y91802D01*
X141237D01*
X140237Y90803D01*
Y89803D01*
X141237Y88803D01*
X144236D01*
X152411Y90803D02*
X151411Y91802D01*
X149412D01*
X148412Y90803D01*
Y86804D01*
X149412Y85804D01*
X151411D01*
X152411Y86804D01*
X154410Y85804D02*
X156410D01*
X155410D01*
Y91802D01*
X154410Y90803D01*
X159409D02*
X160408Y91802D01*
X162408D01*
X163407Y90803D01*
Y86804D01*
X162408Y85804D01*
X160408D01*
X159409Y86804D01*
Y90803D01*
X83513Y90803D02*
X82514Y91802D01*
X80514D01*
X79515Y90803D01*
Y86804D01*
X80514Y85804D01*
X82514D01*
X83513Y86804D01*
X85513Y85804D02*
X87512D01*
X86512D01*
Y91802D01*
X85513Y90803D01*
X90511Y85804D02*
X92510D01*
X91511D01*
Y91802D01*
X90511Y90803D01*
X140206Y186866D02*
X139207Y187865D01*
X137207D01*
X136207Y186866D01*
Y182867D01*
X137207Y181867D01*
X139207D01*
X140206Y182867D01*
X142206Y181867D02*
X144205D01*
X143205D01*
Y187865D01*
X142206Y186866D01*
X151203Y181867D02*
X147204D01*
X151203Y185866D01*
Y186866D01*
X150203Y187865D01*
X148204D01*
X147204Y186866D01*
X126185D02*
X125185Y187865D01*
X123186D01*
X122186Y186866D01*
Y182867D01*
X123186Y181867D01*
X125185D01*
X126185Y182867D01*
X128184Y181867D02*
X130184D01*
X129184D01*
Y187865D01*
X128184Y186866D01*
X133183D02*
X134183Y187865D01*
X136182D01*
X137181Y186866D01*
Y185866D01*
X136182Y184866D01*
X135182D01*
X136182D01*
X137181Y183867D01*
Y182867D01*
X136182Y181867D01*
X134183D01*
X133183Y182867D01*
X169340Y135685D02*
X168340Y136684D01*
X166341D01*
X165341Y135685D01*
Y131686D01*
X166341Y130686D01*
X168340D01*
X169340Y131686D01*
X171339Y130686D02*
X173339D01*
X172339D01*
Y136684D01*
X171339Y135685D01*
X179337Y130686D02*
Y136684D01*
X176338Y133685D01*
X180336D01*
X186676Y135707D02*
X185676Y136707D01*
X183677D01*
X182677Y135707D01*
Y131708D01*
X183677Y130709D01*
X185676D01*
X186676Y131708D01*
X188675Y130709D02*
X190675D01*
X189675D01*
Y136707D01*
X188675Y135707D01*
X197672Y136707D02*
X193674D01*
Y133708D01*
X195673Y134707D01*
X196673D01*
X197672Y133708D01*
Y131708D01*
X196673Y130709D01*
X194673D01*
X193674Y131708D01*
X365748Y140644D02*
Y134646D01*
X368747D01*
X369747Y135645D01*
Y139644D01*
X368747Y140644D01*
X365748D01*
X371746Y134646D02*
X373745D01*
X372746D01*
Y140644D01*
X371746Y139644D01*
X326378Y38675D02*
Y32677D01*
X329377D01*
X330377Y33677D01*
Y37675D01*
X329377Y38675D01*
X326378D01*
X336375Y32677D02*
X332376D01*
X336375Y36676D01*
Y37675D01*
X335375Y38675D01*
X333376D01*
X332376Y37675D01*
X79963Y135171D02*
Y129173D01*
X82962D01*
X83962Y130173D01*
Y134172D01*
X82962Y135171D01*
X79963D01*
X85961Y134172D02*
X86961Y135171D01*
X88960D01*
X89960Y134172D01*
Y133172D01*
X88960Y132172D01*
X87960D01*
X88960D01*
X89960Y131173D01*
Y130173D01*
X88960Y129173D01*
X86961D01*
X85961Y130173D01*
X131558Y148911D02*
X127559D01*
Y145912D01*
X129558D01*
X127559D01*
Y142913D01*
X133557Y148911D02*
Y142913D01*
X136556D01*
X137556Y143913D01*
Y144913D01*
X136556Y145912D01*
X133557D01*
X136556D01*
X137556Y146912D01*
Y147912D01*
X136556Y148911D01*
X133557D01*
X139555Y142913D02*
X141554D01*
X140555D01*
Y148911D01*
X139555Y147912D01*
X336402Y138326D02*
X334402D01*
X335402D01*
Y133327D01*
X334402Y132328D01*
X333403D01*
X332403Y133327D01*
X338401Y132328D02*
X340401D01*
X339401D01*
Y138326D01*
X338401Y137326D01*
X304527Y176008D02*
Y182006D01*
X307526D01*
X308525Y181007D01*
Y179007D01*
X307526Y178008D01*
X304527D01*
X310525Y176008D02*
X312524D01*
X311524D01*
Y182006D01*
X310525Y181007D01*
X198031Y16535D02*
Y22534D01*
X201030D01*
X202030Y21534D01*
Y19534D01*
X201030Y18535D01*
X198031D01*
X208028Y16535D02*
X204030D01*
X208028Y20534D01*
Y21534D01*
X207029Y22534D01*
X205029D01*
X204030Y21534D01*
X346850Y16693D02*
Y22691D01*
X349849D01*
X350849Y21691D01*
Y19692D01*
X349849Y18692D01*
X346850D01*
X352849Y21691D02*
X353848Y22691D01*
X355848D01*
X356847Y21691D01*
Y20692D01*
X355848Y19692D01*
X354848D01*
X355848D01*
X356847Y18692D01*
Y17693D01*
X355848Y16693D01*
X353848D01*
X352849Y17693D01*
X300000Y16535D02*
Y22534D01*
X302999D01*
X303999Y21534D01*
Y19534D01*
X302999Y18535D01*
X300000D01*
X308997Y16535D02*
Y22534D01*
X305998Y19534D01*
X309997D01*
X173228Y174016D02*
Y180014D01*
X176227D01*
X177227Y179014D01*
Y177015D01*
X176227Y176015D01*
X173228D01*
X183225Y180014D02*
X179226D01*
Y177015D01*
X181226Y178015D01*
X182225D01*
X183225Y177015D01*
Y175015D01*
X182225Y174016D01*
X180226D01*
X179226Y175015D01*
X256693Y15354D02*
Y21352D01*
X259692D01*
X260692Y20353D01*
Y18353D01*
X259692Y17354D01*
X256693D01*
X266690Y21352D02*
X264690Y20353D01*
X262691Y18353D01*
Y16354D01*
X263691Y15354D01*
X265690D01*
X266690Y16354D01*
Y17354D01*
X265690Y18353D01*
X262691D01*
X239370Y174803D02*
Y180801D01*
X242369D01*
X243369Y179801D01*
Y177802D01*
X242369Y176803D01*
X239370D01*
X245368Y180801D02*
X249367D01*
Y179801D01*
X245368Y175803D01*
Y174803D01*
X95688Y166053D02*
Y172052D01*
X98687D01*
X99687Y171052D01*
Y169053D01*
X98687Y168053D01*
X95688D01*
X101686Y171052D02*
X102686Y172052D01*
X104685D01*
X105685Y171052D01*
Y170052D01*
X104685Y169053D01*
X105685Y168053D01*
Y167053D01*
X104685Y166053D01*
X102686D01*
X101686Y167053D01*
Y168053D01*
X102686Y169053D01*
X101686Y170052D01*
Y171052D01*
X102686Y169053D02*
X104685D01*
X315874Y126378D02*
Y132376D01*
X318873D01*
X319872Y131377D01*
Y129377D01*
X318873Y128378D01*
X315874D01*
X317873D02*
X319872Y126378D01*
X321872D02*
X323871D01*
X322871D01*
Y132376D01*
X321872Y131377D01*
X294456Y126378D02*
Y132376D01*
X297455D01*
X298455Y131377D01*
Y129377D01*
X297455Y128378D01*
X294456D01*
X296456D02*
X298455Y126378D01*
X304453D02*
X300454D01*
X304453Y130377D01*
Y131377D01*
X303453Y132376D01*
X301454D01*
X300454Y131377D01*
X273048Y126334D02*
Y132332D01*
X276047D01*
X277047Y131332D01*
Y129333D01*
X276047Y128333D01*
X273048D01*
X275047D02*
X277047Y126334D01*
X279046Y131332D02*
X280046Y132332D01*
X282045D01*
X283045Y131332D01*
Y130333D01*
X282045Y129333D01*
X281045D01*
X282045D01*
X283045Y128333D01*
Y127333D01*
X282045Y126334D01*
X280046D01*
X279046Y127333D01*
X172441Y157087D02*
Y163085D01*
X175440D01*
X176440Y162085D01*
Y160086D01*
X175440Y159086D01*
X172441D01*
X174440D02*
X176440Y157087D01*
X181438D02*
Y163085D01*
X178439Y160086D01*
X182438D01*
X305906Y159843D02*
Y165841D01*
X308905D01*
X309904Y164841D01*
Y162842D01*
X308905Y161842D01*
X305906D01*
X307905D02*
X309904Y159843D01*
X315902Y165841D02*
X313903Y164841D01*
X311904Y162842D01*
Y160842D01*
X312903Y159843D01*
X314903D01*
X315902Y160842D01*
Y161842D01*
X314903Y162842D01*
X311904D01*
X127953Y100394D02*
Y106392D01*
X130952D01*
X131951Y105392D01*
Y103393D01*
X130952Y102393D01*
X127953D01*
X129952D02*
X131951Y100394D01*
X133951Y106392D02*
X137950D01*
Y105392D01*
X133951Y101393D01*
Y100394D01*
X92913Y26772D02*
Y32770D01*
X95912D01*
X96912Y31770D01*
Y29771D01*
X95912Y28771D01*
X92913D01*
X94913D02*
X96912Y26772D01*
X98911Y31770D02*
X99911Y32770D01*
X101910D01*
X102910Y31770D01*
Y30770D01*
X101910Y29771D01*
X102910Y28771D01*
Y27771D01*
X101910Y26772D01*
X99911D01*
X98911Y27771D01*
Y28771D01*
X99911Y29771D01*
X98911Y30770D01*
Y31770D01*
X99911Y29771D02*
X101910D01*
X92520Y46850D02*
Y52849D01*
X95519D01*
X96518Y51849D01*
Y49849D01*
X95519Y48850D01*
X92520D01*
X94519D02*
X96518Y46850D01*
X98518Y47850D02*
X99517Y46850D01*
X101517D01*
X102516Y47850D01*
Y51849D01*
X101517Y52849D01*
X99517D01*
X98518Y51849D01*
Y50849D01*
X99517Y49849D01*
X102516D01*
X9852Y49326D02*
X8853Y50326D01*
X6853D01*
X5853Y49326D01*
Y48326D01*
X6853Y47327D01*
X8853D01*
X9852Y46327D01*
Y45327D01*
X8853Y44328D01*
X6853D01*
X5853Y45327D01*
X11852Y44328D02*
X13851D01*
X12851D01*
Y50326D01*
X11852Y49326D01*
X220079Y128833D02*
Y123834D01*
X221078Y122835D01*
X223078D01*
X224077Y123834D01*
Y128833D01*
X226077Y122835D02*
X228076D01*
X227077D01*
Y128833D01*
X226077Y127833D01*
X364173Y170565D02*
Y165567D01*
X365173Y164567D01*
X367172D01*
X368172Y165567D01*
Y170565D01*
X374170Y164567D02*
X370171D01*
X374170Y168566D01*
Y169565D01*
X373170Y170565D01*
X371171D01*
X370171Y169565D01*
X150787Y103636D02*
Y102636D01*
X152787Y100637D01*
X154786Y102636D01*
Y103636D01*
X152787Y100637D02*
Y97638D01*
X156786D02*
X158785D01*
X157785D01*
Y103636D01*
X156786Y102636D01*
X202362Y133163D02*
Y132164D01*
X204362Y130164D01*
X206361Y132164D01*
Y133163D01*
X204362Y130164D02*
Y127165D01*
X212359D02*
X208360D01*
X212359Y131164D01*
Y132164D01*
X211359Y133163D01*
X209360D01*
X208360Y132164D01*
D29*
X389961Y51968D02*
G03*
X389961Y51968I-9843J0D01*
G01*
X363386Y52362D02*
G03*
X363386Y52362I-9843J0D01*
G01*
X171256Y100291D02*
G03*
X164665Y93701I0J-6591D01*
G01*
X186224Y84381D02*
G03*
X192789Y90945I0J6564D01*
G01*
X192785Y93705D02*
G03*
X186221Y100269I-6564J0D01*
G01*
X164669Y90941D02*
G03*
X171260Y84350I6591J0D01*
G01*
X114670Y49606D02*
X120393D01*
X145870D02*
X151593D01*
X145893Y43806D02*
Y55506D01*
X120493Y43806D02*
X145893D01*
X120493D02*
Y55506D01*
X145893D01*
X114670Y29921D02*
X120393D01*
X145870D02*
X151593D01*
X145893Y24121D02*
Y35821D01*
X120493Y24121D02*
X145893D01*
X120493D02*
Y35821D01*
X145893D01*
X373110Y2874D02*
Y12874D01*
X333110Y2874D02*
X373110D01*
X333110Y12874D02*
X373110D01*
X333110Y2874D02*
Y12874D01*
X392480Y53512D02*
Y57512D01*
X390480Y55512D02*
X394480D01*
X365905Y54299D02*
Y58299D01*
X363906Y56299D02*
X367905D01*
X82284Y79921D02*
X84646D01*
X83465Y78740D02*
Y81102D01*
X287835Y183976D02*
Y193976D01*
X327835D01*
X287835Y183976D02*
X327835D01*
Y193976D01*
X202559Y183976D02*
Y193976D01*
X282559D01*
Y183976D02*
Y193976D01*
X202559Y183976D02*
X282559D01*
X90276Y194134D02*
X110276D01*
X90276Y174134D02*
Y194134D01*
X110276Y174134D02*
Y194134D01*
X90276Y174134D02*
X110276D01*
X321024Y109528D02*
Y115251D01*
Y78328D02*
Y84051D01*
X315224Y84028D02*
X326924D01*
X315224D02*
Y109428D01*
X326924D01*
Y84028D02*
Y109428D01*
X299606Y109528D02*
Y115251D01*
Y78328D02*
Y84051D01*
X293806Y84028D02*
X305506D01*
X293806D02*
Y109428D01*
X305506D01*
Y84028D02*
Y109428D01*
X278346Y78450D02*
Y84172D01*
Y109650D02*
Y115373D01*
X272446Y109672D02*
X284146D01*
Y84272D02*
Y109672D01*
X272446Y84272D02*
X284146D01*
X272446D02*
Y109672D01*
X7087Y13386D02*
Y31102D01*
X32677Y13386D02*
Y30709D01*
X15846Y10630D02*
X24016D01*
X34646Y3543D02*
Y40945D01*
X15846Y33858D02*
X24016D01*
X5217Y3543D02*
X34646D01*
X5217D02*
Y40945D01*
X34646D01*
X164665Y90131D02*
Y93701D01*
X170416Y84381D02*
X186224D01*
X171256Y100291D02*
X187065D01*
X192815Y90945D02*
Y94515D01*
X157126Y183976D02*
Y193976D01*
X197126D01*
X157126Y183976D02*
X197126D01*
Y193976D01*
X347768Y191142D02*
X388768D01*
X347768Y173142D02*
Y191142D01*
Y173142D02*
X388768D01*
Y191142D01*
X347768Y186142D02*
X388768D01*
X380512Y150787D02*
X384114D01*
X380118Y144882D02*
Y156693D01*
X353937Y150787D02*
X357539D01*
X357677Y156693D02*
X380118D01*
X357677Y144882D02*
Y156693D01*
Y144882D02*
X380118D01*
X293410Y150394D02*
X299133D01*
X324610D02*
X330333D01*
X324633Y144594D02*
Y156294D01*
X299233Y144594D02*
X324633D01*
X299233D02*
Y156294D01*
X324633D01*
X287835Y2874D02*
Y12874D01*
X327835D01*
X287835Y2874D02*
X327835D01*
Y12874D01*
X282638Y2874D02*
Y12874D01*
X242638Y2874D02*
X282638D01*
X242638Y12874D02*
X282638D01*
X242638Y2874D02*
Y12874D01*
X158071Y2874D02*
Y12874D01*
X238071D01*
Y2874D02*
Y12874D01*
X158071Y2874D02*
X238071D01*
X115064Y115748D02*
X120787D01*
X146264D02*
X151987D01*
X146287Y109948D02*
Y121648D01*
X120887Y109948D02*
X146287D01*
X120887D02*
Y121648D01*
X146287D01*
X114670Y134646D02*
X120393D01*
X145870D02*
X151593D01*
X145893Y128846D02*
Y140546D01*
X120493Y128846D02*
X145893D01*
X120493D02*
Y140546D01*
X145893D01*
X158765Y148819D02*
X164487D01*
X189965D02*
X195687D01*
X189987Y143019D02*
Y154719D01*
X164587Y143019D02*
X189987D01*
X164587D02*
Y154719D01*
X189987D01*
X213583Y87598D02*
Y109252D01*
X235236Y87598D02*
Y109252D01*
X213583D02*
X235236D01*
X213583Y87598D02*
X235236D01*
D30*
X350707Y175197D02*
G03*
X350707Y175197I-707J0D01*
G01*
D31*
X208957Y112008D02*
G03*
X208957Y112008I-492J0D01*
G01*
D32*
X218701Y105315D02*
G03*
X218701Y105315I-1181J0D01*
G01*
D33*
X331693Y122126D02*
X348583D01*
X363779D02*
X396654D01*
X363779Y74724D02*
X396654D01*
X331693D02*
X348583D01*
X396654D02*
Y122126D01*
X331693Y74724D02*
Y122126D01*
D34*
X87276Y177134D02*
X88942D01*
X88109D01*
Y182132D01*
X87276Y181299D01*
X88608Y187134D02*
X85276D01*
X88608Y190466D01*
Y191299D01*
X87775Y192132D01*
X86109D01*
X85276Y191299D01*
X113775Y187134D02*
Y192132D01*
X111276Y189633D01*
X114608D01*
X111276Y181299D02*
X112109Y182132D01*
X113775D01*
X114608Y181299D01*
Y180466D01*
X113775Y179633D01*
X112942D01*
X113775D01*
X114608Y178800D01*
Y177967D01*
X113775Y177134D01*
X112109D01*
X111276Y177967D01*
D35*
X360039Y150787D02*
D03*
M02*
