G04 Layer_Color=8388736*
%FSLAX25Y25*%
%MOIN*%
G70*
G01*
G75*
%ADD36O,0.07887X0.01981*%
%ADD37O,0.01981X0.07887*%
%ADD38C,0.05721*%
%ADD39C,0.05524*%
%ADD40C,0.06706*%
%ADD41R,0.06706X0.06706*%
%ADD42C,0.04737*%
%ADD43R,0.05524X0.05524*%
%ADD44C,0.14383*%
%ADD45R,0.06391X0.06391*%
%ADD46C,0.06391*%
%ADD47C,0.07099*%
%ADD48R,0.07099X0.07099*%
%ADD49R,0.07887X0.07887*%
%ADD50C,0.07887*%
%ADD51C,0.02769*%
%ADD52C,0.05800*%
D36*
X208465Y109252D02*
D03*
Y107283D02*
D03*
Y105315D02*
D03*
Y103347D02*
D03*
Y101378D02*
D03*
Y99410D02*
D03*
Y97441D02*
D03*
Y95472D02*
D03*
Y93504D02*
D03*
Y91535D02*
D03*
Y89567D02*
D03*
Y87598D02*
D03*
X240354D02*
D03*
Y89567D02*
D03*
Y91535D02*
D03*
Y93504D02*
D03*
Y95472D02*
D03*
Y97441D02*
D03*
Y99410D02*
D03*
Y101378D02*
D03*
Y103347D02*
D03*
Y105315D02*
D03*
Y107283D02*
D03*
Y109252D02*
D03*
D37*
X213583Y82480D02*
D03*
X215551D02*
D03*
X217520D02*
D03*
X219488D02*
D03*
X221457D02*
D03*
X223425D02*
D03*
X225394D02*
D03*
X227362D02*
D03*
X229331D02*
D03*
X231299D02*
D03*
X233268D02*
D03*
X235236D02*
D03*
Y114370D02*
D03*
X233268D02*
D03*
X231299D02*
D03*
X229331D02*
D03*
X227362D02*
D03*
X225394D02*
D03*
X223425D02*
D03*
X221457D02*
D03*
X219488D02*
D03*
X217520D02*
D03*
X215551D02*
D03*
X213583D02*
D03*
D38*
X109449Y49606D02*
D03*
X156693D02*
D03*
X109449Y29921D02*
D03*
X156693D02*
D03*
X321024Y120472D02*
D03*
Y73228D02*
D03*
X299606Y120472D02*
D03*
Y73228D02*
D03*
X278346Y73228D02*
D03*
Y120473D02*
D03*
X288189Y150394D02*
D03*
X335433D02*
D03*
X109843Y115748D02*
D03*
X157087D02*
D03*
X109449Y134646D02*
D03*
X156693D02*
D03*
X153543Y148819D02*
D03*
X200787D02*
D03*
D39*
X188976Y75984D02*
D03*
Y65984D02*
D03*
X177559Y65748D02*
D03*
Y75748D02*
D03*
X165748Y65748D02*
D03*
Y75748D02*
D03*
X98425Y75354D02*
D03*
Y65354D02*
D03*
X349606Y52362D02*
D03*
X357480D02*
D03*
X111417Y65354D02*
D03*
Y75354D02*
D03*
X124409Y65354D02*
D03*
Y75354D02*
D03*
X138189Y65354D02*
D03*
Y75354D02*
D03*
X152362Y65354D02*
D03*
Y75354D02*
D03*
X83465Y65354D02*
D03*
Y75354D02*
D03*
X140157Y161417D02*
D03*
Y171417D02*
D03*
X126136Y161417D02*
D03*
Y171417D02*
D03*
X169291Y110236D02*
D03*
Y120236D02*
D03*
X94488Y115354D02*
D03*
X168898Y92520D02*
D03*
X188189D02*
D03*
X324803Y52362D02*
D03*
X181102Y110236D02*
D03*
Y120236D02*
D03*
D40*
X338110Y7874D02*
D03*
X348110D02*
D03*
X358110D02*
D03*
X312835Y188976D02*
D03*
X302835D02*
D03*
X292835D02*
D03*
X267559D02*
D03*
X257559D02*
D03*
X247559D02*
D03*
X237559D02*
D03*
X227559D02*
D03*
X217559D02*
D03*
X207559D02*
D03*
X105276Y189134D02*
D03*
Y179134D02*
D03*
X95276Y189134D02*
D03*
X182126Y188976D02*
D03*
X172126D02*
D03*
X162126D02*
D03*
X388976Y150787D02*
D03*
X312835Y7874D02*
D03*
X302835D02*
D03*
X292835D02*
D03*
X257638D02*
D03*
X267638D02*
D03*
X277638D02*
D03*
X223071D02*
D03*
X213071D02*
D03*
X203071D02*
D03*
X193071D02*
D03*
X183071D02*
D03*
X173071D02*
D03*
X163071D02*
D03*
D41*
X368110D02*
D03*
X322835Y188976D02*
D03*
X277559D02*
D03*
X95276Y179134D02*
D03*
X192126Y188976D02*
D03*
X348976Y150787D02*
D03*
X322835Y7874D02*
D03*
X247638D02*
D03*
X233071D02*
D03*
D42*
X377165Y51968D02*
D03*
X383071D02*
D03*
D43*
X84488Y115354D02*
D03*
X334803Y52362D02*
D03*
D44*
X356181Y74724D02*
D03*
Y122126D02*
D03*
D45*
X337638Y103347D02*
D03*
D46*
Y93504D02*
D03*
X345512D02*
D03*
Y103347D02*
D03*
D47*
X11024Y9449D02*
D03*
Y35039D02*
D03*
X28740Y9449D02*
D03*
D48*
Y35039D02*
D03*
D49*
X358268Y180315D02*
D03*
D50*
X368268D02*
D03*
X378268D02*
D03*
D51*
X196063Y117717D02*
D03*
X199213D02*
D03*
D52*
X251969Y139764D02*
D03*
X254331Y118504D02*
D03*
X168898Y42520D02*
D03*
X177165Y52362D02*
D03*
X194488Y162598D02*
D03*
X254724Y66142D02*
D03*
X245276Y78347D02*
D03*
X252362Y46457D02*
D03*
X246896Y114173D02*
D03*
X220866Y172441D02*
D03*
X221359Y160137D02*
D03*
X220866Y149213D02*
D03*
X246850Y39370D02*
D03*
X239764Y34646D02*
D03*
M02*
