G04 Layer_Physical_Order=1*
G04 Layer_Color=255*
%FSLAX25Y25*%
%MOIN*%
G70*
G01*
G75*
%ADD10O,0.07087X0.01181*%
%ADD11O,0.01181X0.07087*%
%ADD12C,0.01000*%
%ADD13C,0.04921*%
%ADD14C,0.04724*%
%ADD15C,0.05906*%
%ADD16R,0.05906X0.05906*%
%ADD17C,0.03937*%
%ADD18R,0.04724X0.04724*%
%ADD19C,0.13583*%
%ADD20R,0.05591X0.05591*%
%ADD21C,0.05591*%
%ADD22C,0.06299*%
%ADD23R,0.06299X0.06299*%
%ADD24R,0.07087X0.07087*%
%ADD25C,0.07087*%
%ADD26C,0.01969*%
%ADD27C,0.05000*%
G36*
X397638Y163D02*
X397244Y0D01*
X1181D01*
X395Y196496D01*
X748Y196850D01*
X397638D01*
Y163D01*
D02*
G37*
%LPC*%
G36*
X105276Y193121D02*
X104244Y192985D01*
X103282Y192587D01*
X102456Y191953D01*
X101823Y191127D01*
X101631Y190663D01*
X98921D01*
X98728Y191127D01*
X98095Y191953D01*
X97269Y192587D01*
X96307Y192985D01*
X95276Y193121D01*
X94244Y192985D01*
X93282Y192587D01*
X92456Y191953D01*
X91823Y191127D01*
X91425Y190166D01*
X91289Y189134D01*
X91425Y188102D01*
X91823Y187140D01*
X92456Y186315D01*
X93282Y185681D01*
X94244Y185283D01*
X95276Y185147D01*
X96307Y185283D01*
X97269Y185681D01*
X98095Y186315D01*
X98728Y187140D01*
X98921Y187604D01*
X101631D01*
X101823Y187140D01*
X102456Y186315D01*
X103282Y185681D01*
X104244Y185283D01*
X105276Y185147D01*
X106307Y185283D01*
X107269Y185681D01*
X108095Y186315D01*
X108592Y186963D01*
X109189Y187074D01*
X111856Y184406D01*
Y154331D01*
X111973Y153745D01*
X112304Y153249D01*
X117816Y147738D01*
X118312Y147406D01*
X118898Y147290D01*
X150431D01*
X150521Y147074D01*
X151075Y146351D01*
X151798Y145796D01*
X152640Y145447D01*
X153543Y145328D01*
X154447Y145447D01*
X155289Y145796D01*
X156011Y146351D01*
X156566Y147074D01*
X156915Y147915D01*
X157034Y148819D01*
X156915Y149722D01*
X156566Y150564D01*
X156011Y151287D01*
X155289Y151842D01*
X154447Y152190D01*
X153543Y152309D01*
X152640Y152190D01*
X151798Y151842D01*
X151075Y151287D01*
X150521Y150564D01*
X150431Y150348D01*
X119531D01*
X114915Y154964D01*
Y185039D01*
X114799Y185625D01*
X114467Y186121D01*
X110373Y190215D01*
X109877Y190547D01*
X109291Y190663D01*
X108921D01*
X108728Y191127D01*
X108095Y191953D01*
X107269Y192587D01*
X106307Y192985D01*
X105276Y193121D01*
D02*
G37*
G36*
X196079Y192929D02*
X192626D01*
Y189476D01*
X196079D01*
Y192929D01*
D02*
G37*
G36*
X293335Y192897D02*
Y189476D01*
X296756D01*
X296686Y190008D01*
X296287Y190970D01*
X295654Y191796D01*
X294828Y192429D01*
X293866Y192827D01*
X293335Y192897D01*
D02*
G37*
G36*
X292335Y192897D02*
X291803Y192827D01*
X290841Y192429D01*
X290016Y191796D01*
X289382Y190970D01*
X288984Y190008D01*
X288914Y189476D01*
X292335D01*
Y192897D01*
D02*
G37*
G36*
X191626Y192929D02*
X188173D01*
Y189476D01*
X191626D01*
Y192929D01*
D02*
G37*
G36*
X296756Y188476D02*
X293335D01*
Y185055D01*
X293866Y185125D01*
X294828Y185524D01*
X295654Y186157D01*
X296287Y186983D01*
X296686Y187944D01*
X296756Y188476D01*
D02*
G37*
G36*
X292335D02*
X288914D01*
X288984Y187944D01*
X289382Y186983D01*
X290016Y186157D01*
X290841Y185524D01*
X291803Y185125D01*
X292335Y185055D01*
Y188476D01*
D02*
G37*
G36*
X326787Y192929D02*
X318882D01*
Y185024D01*
X326787D01*
Y192929D01*
D02*
G37*
G36*
X281512D02*
X273606D01*
Y185024D01*
X281512D01*
Y192929D01*
D02*
G37*
G36*
X196079Y188476D02*
X192626D01*
Y185024D01*
X196079D01*
Y188476D01*
D02*
G37*
G36*
X191626D02*
X188173D01*
Y185024D01*
X191626D01*
Y188476D01*
D02*
G37*
G36*
X267559Y192963D02*
X266527Y192827D01*
X265566Y192429D01*
X264740Y191796D01*
X264106Y190970D01*
X263708Y190008D01*
X263572Y188976D01*
X263708Y187944D01*
X264106Y186983D01*
X264740Y186157D01*
X265566Y185524D01*
X266527Y185125D01*
X267559Y184990D01*
X268591Y185125D01*
X269552Y185524D01*
X270378Y186157D01*
X271012Y186983D01*
X271410Y187944D01*
X271546Y188976D01*
X271410Y190008D01*
X271012Y190970D01*
X270378Y191796D01*
X269552Y192429D01*
X268591Y192827D01*
X267559Y192963D01*
D02*
G37*
G36*
X257559D02*
X256527Y192827D01*
X255566Y192429D01*
X254740Y191796D01*
X254106Y190970D01*
X253708Y190008D01*
X253572Y188976D01*
X253708Y187944D01*
X254106Y186983D01*
X254740Y186157D01*
X255566Y185524D01*
X256527Y185125D01*
X257559Y184990D01*
X258591Y185125D01*
X259553Y185524D01*
X260378Y186157D01*
X261012Y186983D01*
X261410Y187944D01*
X261546Y188976D01*
X261410Y190008D01*
X261012Y190970D01*
X260378Y191796D01*
X259553Y192429D01*
X258591Y192827D01*
X257559Y192963D01*
D02*
G37*
G36*
X182126D02*
X181094Y192827D01*
X180132Y192429D01*
X179307Y191796D01*
X178673Y190970D01*
X178275Y190008D01*
X178139Y188976D01*
X178275Y187944D01*
X178673Y186983D01*
X179307Y186157D01*
X180132Y185524D01*
X181094Y185125D01*
X182126Y184990D01*
X183158Y185125D01*
X184119Y185524D01*
X184945Y186157D01*
X185579Y186983D01*
X185977Y187944D01*
X186113Y188976D01*
X185977Y190008D01*
X185579Y190970D01*
X184945Y191796D01*
X184119Y192429D01*
X183158Y192827D01*
X182126Y192963D01*
D02*
G37*
G36*
X172126D02*
X171094Y192827D01*
X170133Y192429D01*
X169307Y191796D01*
X168673Y190970D01*
X168275Y190008D01*
X168139Y188976D01*
X168275Y187944D01*
X168673Y186983D01*
X169307Y186157D01*
X170133Y185524D01*
X171094Y185125D01*
X172126Y184990D01*
X173158Y185125D01*
X174119Y185524D01*
X174945Y186157D01*
X175579Y186983D01*
X175977Y187944D01*
X176113Y188976D01*
X175977Y190008D01*
X175579Y190970D01*
X174945Y191796D01*
X174119Y192429D01*
X173158Y192827D01*
X172126Y192963D01*
D02*
G37*
G36*
X162126D02*
X161094Y192827D01*
X160133Y192429D01*
X159307Y191796D01*
X158673Y190970D01*
X158275Y190008D01*
X158139Y188976D01*
X158275Y187944D01*
X158673Y186983D01*
X159307Y186157D01*
X160133Y185524D01*
X161094Y185125D01*
X162126Y184990D01*
X163158Y185125D01*
X164119Y185524D01*
X164945Y186157D01*
X165579Y186983D01*
X165977Y187944D01*
X166113Y188976D01*
X165977Y190008D01*
X165579Y190970D01*
X164945Y191796D01*
X164119Y192429D01*
X163158Y192827D01*
X162126Y192963D01*
D02*
G37*
G36*
X378768Y184832D02*
Y180815D01*
X382784D01*
X382694Y181501D01*
X382236Y182606D01*
X381508Y183555D01*
X380559Y184283D01*
X379454Y184741D01*
X378768Y184832D01*
D02*
G37*
G36*
X377768D02*
X377082Y184741D01*
X375976Y184283D01*
X375027Y183555D01*
X374299Y182606D01*
X373841Y181501D01*
X373751Y180815D01*
X377768D01*
Y184832D01*
D02*
G37*
G36*
X99228Y183087D02*
X95776D01*
Y179634D01*
X99228D01*
Y183087D01*
D02*
G37*
G36*
X94776D02*
X91323D01*
Y179634D01*
X94776D01*
Y183087D01*
D02*
G37*
G36*
X312835Y192963D02*
X311803Y192827D01*
X310841Y192429D01*
X310016Y191796D01*
X309382Y190970D01*
X308984Y190008D01*
X308848Y188976D01*
X308984Y187944D01*
X309382Y186983D01*
X310016Y186157D01*
X310841Y185524D01*
X311305Y185331D01*
Y182366D01*
X304842Y175902D01*
X304527Y176008D01*
X304364Y176132D01*
Y185331D01*
X304828Y185524D01*
X305654Y186157D01*
X306287Y186983D01*
X306686Y187944D01*
X306821Y188976D01*
X306686Y190008D01*
X306287Y190970D01*
X305654Y191796D01*
X304828Y192429D01*
X303867Y192827D01*
X302835Y192963D01*
X301803Y192827D01*
X300841Y192429D01*
X300015Y191796D01*
X299382Y190970D01*
X298984Y190008D01*
X298848Y188976D01*
X298984Y187944D01*
X299382Y186983D01*
X300015Y186157D01*
X300841Y185524D01*
X301305Y185331D01*
Y176697D01*
X297792Y173183D01*
X262205D01*
X261619Y173066D01*
X261123Y172735D01*
X256005Y167617D01*
X255674Y167121D01*
X255557Y166535D01*
Y141552D01*
X255057Y141453D01*
X255026Y141529D01*
X254465Y142260D01*
X253734Y142821D01*
X252882Y143174D01*
X251969Y143294D01*
X251055Y143174D01*
X250203Y142821D01*
X249472Y142260D01*
X248911Y141529D01*
X248559Y140677D01*
X248438Y139764D01*
X248559Y138850D01*
X248911Y137999D01*
X249472Y137268D01*
X250203Y136706D01*
X250439Y136609D01*
Y134886D01*
X243461Y127907D01*
X237416D01*
X237225Y128369D01*
X241350Y132494D01*
X241665D01*
X242251Y132611D01*
X242747Y132942D01*
X243078Y133438D01*
X243195Y134024D01*
Y163776D01*
X248640Y169222D01*
X248972Y169718D01*
X249088Y170303D01*
Y185331D01*
X249552Y185524D01*
X250378Y186157D01*
X251012Y186983D01*
X251410Y187944D01*
X251546Y188976D01*
X251410Y190008D01*
X251012Y190970D01*
X250378Y191796D01*
X249552Y192429D01*
X248591Y192827D01*
X247559Y192963D01*
X246527Y192827D01*
X245566Y192429D01*
X244740Y191796D01*
X244106Y190970D01*
X243708Y190008D01*
X243572Y188976D01*
X243708Y187944D01*
X244106Y186983D01*
X244740Y186157D01*
X245566Y185524D01*
X246030Y185331D01*
Y170937D01*
X240584Y165491D01*
X240252Y164995D01*
X240136Y164409D01*
Y135438D01*
X240131Y135437D01*
X239635Y135105D01*
X239550Y135020D01*
X239088Y135212D01*
Y185331D01*
X239552Y185524D01*
X240378Y186157D01*
X241012Y186983D01*
X241410Y187944D01*
X241546Y188976D01*
X241410Y190008D01*
X241012Y190970D01*
X240378Y191796D01*
X239552Y192429D01*
X238591Y192827D01*
X237559Y192963D01*
X236527Y192827D01*
X235566Y192429D01*
X234740Y191796D01*
X234106Y190970D01*
X233708Y190008D01*
X233572Y188976D01*
X233708Y187944D01*
X234106Y186983D01*
X234740Y186157D01*
X235566Y185524D01*
X236030Y185331D01*
Y171905D01*
X235568Y171713D01*
X229088Y178192D01*
Y185331D01*
X229553Y185524D01*
X230378Y186157D01*
X231012Y186983D01*
X231410Y187944D01*
X231546Y188976D01*
X231410Y190008D01*
X231012Y190970D01*
X230378Y191796D01*
X229553Y192429D01*
X228591Y192827D01*
X227559Y192963D01*
X226527Y192827D01*
X225566Y192429D01*
X224740Y191796D01*
X224106Y190970D01*
X223708Y190008D01*
X223572Y188976D01*
X223708Y187944D01*
X224106Y186983D01*
X224740Y186157D01*
X225566Y185524D01*
X226030Y185331D01*
Y177559D01*
X226146Y176974D01*
X226478Y176478D01*
X233510Y169445D01*
Y162613D01*
X233048Y162422D01*
X227066Y168404D01*
X224178Y171292D01*
X224276Y171527D01*
X224396Y172441D01*
X224276Y173355D01*
X223923Y174206D01*
X223362Y174937D01*
X222631Y175498D01*
X221780Y175851D01*
X220866Y175971D01*
X219953Y175851D01*
X219101Y175498D01*
X218370Y174937D01*
X217809Y174206D01*
X217456Y173355D01*
X217336Y172441D01*
X217456Y171527D01*
X217809Y170676D01*
X218370Y169945D01*
X219101Y169384D01*
X219953Y169031D01*
X220866Y168911D01*
X221780Y169031D01*
X222016Y169129D01*
X224903Y166241D01*
X231148Y159996D01*
Y153165D01*
X230686Y152973D01*
X224672Y158987D01*
X224769Y159223D01*
X224890Y160137D01*
X224769Y161050D01*
X224417Y161902D01*
X223856Y162633D01*
X223125Y163194D01*
X222273Y163547D01*
X221359Y163667D01*
X220446Y163547D01*
X219594Y163194D01*
X218863Y162633D01*
X218302Y161902D01*
X217950Y161050D01*
X217829Y160137D01*
X217950Y159223D01*
X218302Y158371D01*
X218863Y157640D01*
X219594Y157079D01*
X220446Y156727D01*
X221359Y156606D01*
X222273Y156727D01*
X222509Y156824D01*
X228786Y150548D01*
Y144109D01*
X228324Y143918D01*
X224178Y148063D01*
X224276Y148299D01*
X224396Y149213D01*
X224276Y150126D01*
X223923Y150978D01*
X223362Y151709D01*
X222631Y152270D01*
X221780Y152622D01*
X220866Y152743D01*
X219953Y152622D01*
X219101Y152270D01*
X218370Y151709D01*
X217809Y150978D01*
X217456Y150126D01*
X217336Y149213D01*
X217456Y148299D01*
X217809Y147448D01*
X218370Y146716D01*
X219101Y146155D01*
X219953Y145803D01*
X220866Y145682D01*
X221780Y145803D01*
X222016Y145900D01*
X226817Y141099D01*
Y136854D01*
X220375Y130412D01*
X220044Y129916D01*
X219927Y129331D01*
Y128558D01*
X219465Y128367D01*
X214522Y133311D01*
Y177083D01*
X218640Y181202D01*
X218972Y181698D01*
X219088Y182283D01*
Y185331D01*
X219552Y185524D01*
X220378Y186157D01*
X221012Y186983D01*
X221410Y187944D01*
X221546Y188976D01*
X221410Y190008D01*
X221012Y190970D01*
X220378Y191796D01*
X219552Y192429D01*
X218591Y192827D01*
X217559Y192963D01*
X216527Y192827D01*
X215566Y192429D01*
X214740Y191796D01*
X214106Y190970D01*
X213708Y190008D01*
X213572Y188976D01*
X213708Y187944D01*
X214106Y186983D01*
X214740Y186157D01*
X215566Y185524D01*
X216030Y185331D01*
Y182917D01*
X211911Y178798D01*
X211862Y178726D01*
X211556Y178678D01*
X211250Y178709D01*
X209088Y180870D01*
Y185331D01*
X209553Y185524D01*
X210378Y186157D01*
X211012Y186983D01*
X211410Y187944D01*
X211546Y188976D01*
X211410Y190008D01*
X211012Y190970D01*
X210378Y191796D01*
X209553Y192429D01*
X208591Y192827D01*
X207559Y192963D01*
X206527Y192827D01*
X205566Y192429D01*
X204740Y191796D01*
X204106Y190970D01*
X203708Y190008D01*
X203572Y188976D01*
X203708Y187944D01*
X204106Y186983D01*
X204740Y186157D01*
X205566Y185524D01*
X206030Y185331D01*
Y180236D01*
X206146Y179651D01*
X206478Y179155D01*
X208707Y176926D01*
Y155112D01*
X208207Y154960D01*
X208168Y155018D01*
X199507Y163680D01*
X199011Y164011D01*
X198425Y164128D01*
X197643D01*
X197545Y164364D01*
X196984Y165095D01*
X196253Y165656D01*
X195402Y166008D01*
X194488Y166129D01*
X193575Y166008D01*
X192723Y165656D01*
X191992Y165095D01*
X191431Y164364D01*
X191078Y163512D01*
X190958Y162598D01*
X191078Y161685D01*
X191431Y160833D01*
X191992Y160102D01*
X192723Y159541D01*
X193575Y159188D01*
X194488Y159068D01*
X195402Y159188D01*
X196253Y159541D01*
X196984Y160102D01*
X197448Y160706D01*
X197890Y160806D01*
X198069Y160792D01*
X205557Y153304D01*
Y136289D01*
X205057Y136082D01*
X197144Y143995D01*
X196648Y144326D01*
X196063Y144443D01*
X158661D01*
X158076Y144326D01*
X157580Y143995D01*
X155612Y142026D01*
X155280Y141530D01*
X155164Y140945D01*
Y137758D01*
X154948Y137669D01*
X154225Y137114D01*
X153670Y136391D01*
X153321Y135549D01*
X153202Y134646D01*
X153321Y133742D01*
X153670Y132900D01*
X154225Y132177D01*
X154948Y131623D01*
X155789Y131274D01*
X156693Y131155D01*
X157596Y131274D01*
X158438Y131623D01*
X159161Y132177D01*
X159716Y132900D01*
X160064Y133742D01*
X160183Y134646D01*
X160064Y135549D01*
X159716Y136391D01*
X159161Y137114D01*
X158438Y137669D01*
X158222Y137758D01*
Y140311D01*
X159295Y141384D01*
X195430D01*
X202801Y134012D01*
Y130724D01*
X202339Y130532D01*
X195570Y137302D01*
X195073Y137633D01*
X194488Y137750D01*
X168898D01*
X168312Y137633D01*
X167816Y137302D01*
X156005Y125491D01*
X155674Y124995D01*
X155557Y124409D01*
Y118860D01*
X155341Y118771D01*
X154619Y118216D01*
X154064Y117493D01*
X153715Y116651D01*
X153596Y115748D01*
X153715Y114845D01*
X154064Y114003D01*
X154619Y113280D01*
X155341Y112725D01*
X156183Y112376D01*
X157087Y112258D01*
X157990Y112376D01*
X158832Y112725D01*
X159555Y113280D01*
X160109Y114003D01*
X160458Y114845D01*
X160577Y115748D01*
X160458Y116651D01*
X160109Y117493D01*
X159555Y118216D01*
X158832Y118771D01*
X158616Y118860D01*
Y123776D01*
X169531Y134691D01*
X193855D01*
X200833Y127713D01*
Y123327D01*
X200949Y122741D01*
X201281Y122245D01*
X202408Y121118D01*
Y115496D01*
X201281Y114369D01*
X201242Y114311D01*
X200742Y114462D01*
Y116434D01*
X201082Y116942D01*
X201236Y117717D01*
X201082Y118491D01*
X200742Y118999D01*
Y120866D01*
X200626Y121451D01*
X200294Y121948D01*
X199113Y123129D01*
X198617Y123460D01*
X198031Y123577D01*
X191732D01*
X191147Y123460D01*
X190651Y123129D01*
X184406Y116884D01*
X183036D01*
X183029Y116896D01*
X182908Y117384D01*
X183500Y117838D01*
X184039Y118541D01*
X184378Y119359D01*
X184494Y120236D01*
X184378Y121114D01*
X184039Y121932D01*
X183500Y122634D01*
X182798Y123173D01*
X181980Y123512D01*
X181102Y123627D01*
X180225Y123512D01*
X179407Y123173D01*
X178704Y122634D01*
X178165Y121932D01*
X177827Y121114D01*
X177711Y120236D01*
X177827Y119359D01*
X178165Y118541D01*
X178704Y117838D01*
X179297Y117384D01*
X179176Y116896D01*
X179169Y116884D01*
X175591D01*
X175005Y116767D01*
X174509Y116436D01*
X171134Y113060D01*
X170987Y113173D01*
X170169Y113512D01*
X169291Y113627D01*
X168414Y113512D01*
X167596Y113173D01*
X166893Y112634D01*
X166355Y111932D01*
X166016Y111114D01*
X165900Y110236D01*
X166016Y109359D01*
X166355Y108541D01*
X166893Y107838D01*
X167596Y107299D01*
X168414Y106961D01*
X169291Y106845D01*
X170169Y106961D01*
X170987Y107299D01*
X171689Y107838D01*
X172228Y108541D01*
X172567Y109359D01*
X172683Y110236D01*
X172677Y110278D01*
X176224Y113825D01*
X179674D01*
X179773Y113325D01*
X179407Y113173D01*
X178704Y112634D01*
X178165Y111932D01*
X177827Y111114D01*
X177711Y110236D01*
X177827Y109359D01*
X178165Y108541D01*
X178704Y107838D01*
X179407Y107299D01*
X180225Y106961D01*
X181102Y106845D01*
X181980Y106961D01*
X182798Y107299D01*
X183500Y107838D01*
X184039Y108541D01*
X184108Y108707D01*
X189370D01*
X189955Y108823D01*
X190452Y109155D01*
X193601Y112304D01*
X193933Y112801D01*
X194034Y113308D01*
X194534Y113259D01*
Y106693D01*
X194650Y106108D01*
X194982Y105612D01*
X197224Y103369D01*
X197032Y102907D01*
X172638D01*
X172053Y102791D01*
X171556Y102459D01*
X167816Y98719D01*
X167485Y98223D01*
X167368Y97638D01*
Y95525D01*
X167202Y95457D01*
X166500Y94918D01*
X165961Y94215D01*
X165622Y93397D01*
X165506Y92520D01*
X165622Y91642D01*
X165691Y91476D01*
X164667Y90452D01*
X164335Y89955D01*
X164219Y89370D01*
Y78754D01*
X164052Y78685D01*
X163350Y78146D01*
X162811Y77444D01*
X162472Y76626D01*
X162357Y75748D01*
X162472Y74870D01*
X162811Y74052D01*
X163350Y73350D01*
X164052Y72811D01*
X164870Y72472D01*
X165748Y72357D01*
X166626Y72472D01*
X167444Y72811D01*
X168146Y73350D01*
X168685Y74052D01*
X169024Y74870D01*
X169139Y75748D01*
X169024Y76626D01*
X168685Y77444D01*
X168146Y78146D01*
X167444Y78685D01*
X167277Y78754D01*
Y88737D01*
X167854Y89313D01*
X168020Y89244D01*
X168898Y89129D01*
X169775Y89244D01*
X170593Y89583D01*
X171296Y90122D01*
X171835Y90824D01*
X172173Y91642D01*
X172289Y92520D01*
X172173Y93397D01*
X171835Y94215D01*
X171296Y94918D01*
X170593Y95457D01*
X170427Y95525D01*
Y97004D01*
X173271Y99849D01*
X187977D01*
X188169Y99387D01*
X187108Y98326D01*
X186776Y97829D01*
X186660Y97244D01*
Y95525D01*
X186493Y95457D01*
X185791Y94918D01*
X185252Y94215D01*
X185183Y94049D01*
X181890D01*
X181305Y93933D01*
X180808Y93601D01*
X176281Y89074D01*
X175949Y88577D01*
X175833Y87992D01*
X175949Y87407D01*
X176030Y87287D01*
Y78754D01*
X175863Y78685D01*
X175161Y78146D01*
X174622Y77444D01*
X174283Y76626D01*
X174168Y75748D01*
X174283Y74870D01*
X174622Y74052D01*
X175161Y73350D01*
X175863Y72811D01*
X176681Y72472D01*
X177559Y72357D01*
X178437Y72472D01*
X179255Y72811D01*
X179957Y73350D01*
X180496Y74052D01*
X180835Y74870D01*
X180950Y75748D01*
X180835Y76626D01*
X180496Y77444D01*
X179957Y78146D01*
X179255Y78685D01*
X179088Y78754D01*
Y87555D01*
X182523Y90990D01*
X185183D01*
X185252Y90824D01*
X185791Y90122D01*
X186493Y89583D01*
X187311Y89244D01*
X188189Y89129D01*
X189067Y89244D01*
X189885Y89583D01*
X190587Y90122D01*
X191126Y90824D01*
X191465Y91642D01*
X191580Y92520D01*
X191465Y93397D01*
X191126Y94215D01*
X190587Y94918D01*
X189885Y95457D01*
X189718Y95525D01*
Y96611D01*
X190988Y97880D01*
X194276D01*
X194468Y97418D01*
X192619Y95570D01*
X192288Y95073D01*
X192171Y94488D01*
Y88823D01*
X188289Y84940D01*
X187957Y84443D01*
X187841Y83858D01*
Y79153D01*
X187281Y78921D01*
X186578Y78382D01*
X186039Y77680D01*
X185701Y76862D01*
X185585Y75984D01*
X185701Y75107D01*
X186039Y74289D01*
X186578Y73586D01*
X187281Y73047D01*
X188099Y72709D01*
X188976Y72593D01*
X189854Y72709D01*
X190672Y73047D01*
X191374Y73586D01*
X191913Y74289D01*
X192252Y75107D01*
X192368Y75984D01*
X192252Y76862D01*
X191913Y77680D01*
X191374Y78382D01*
X190900Y78747D01*
Y83225D01*
X193316Y85641D01*
X193778Y85450D01*
Y64838D01*
X182831Y53892D01*
X180320D01*
X180223Y54127D01*
X179662Y54858D01*
X178930Y55419D01*
X178079Y55772D01*
X177165Y55892D01*
X176252Y55772D01*
X175400Y55419D01*
X174669Y54858D01*
X174108Y54127D01*
X173755Y53276D01*
X173635Y52362D01*
X173755Y51449D01*
X174108Y50597D01*
X174669Y49866D01*
X175400Y49305D01*
X176252Y48952D01*
X177165Y48832D01*
X178079Y48952D01*
X178930Y49305D01*
X179662Y49866D01*
X180223Y50597D01*
X180320Y50833D01*
X183465D01*
X184050Y50949D01*
X184546Y51281D01*
X195253Y61988D01*
X195715Y61796D01*
Y61263D01*
X178500Y44049D01*
X172053D01*
X171955Y44285D01*
X171394Y45016D01*
X170663Y45577D01*
X169811Y45930D01*
X168898Y46050D01*
X167984Y45930D01*
X167132Y45577D01*
X166401Y45016D01*
X165840Y44285D01*
X165488Y43433D01*
X165367Y42520D01*
X165488Y41606D01*
X165840Y40755D01*
X166401Y40023D01*
X167132Y39463D01*
X167984Y39110D01*
X168898Y38989D01*
X169811Y39110D01*
X170663Y39463D01*
X171394Y40023D01*
X171955Y40755D01*
X172053Y40990D01*
X179134D01*
X179719Y41107D01*
X180215Y41438D01*
X198326Y59548D01*
X198657Y60045D01*
X198758Y60552D01*
X199258Y60503D01*
Y58901D01*
X161989Y21633D01*
X161658Y21136D01*
X161541Y20551D01*
Y11519D01*
X161077Y11327D01*
X160252Y10693D01*
X159618Y9867D01*
X159220Y8906D01*
X159084Y7874D01*
X159220Y6842D01*
X159618Y5881D01*
X160252Y5055D01*
X161077Y4421D01*
X162039Y4023D01*
X163071Y3887D01*
X164103Y4023D01*
X165064Y4421D01*
X165890Y5055D01*
X166524Y5881D01*
X166922Y6842D01*
X167058Y7874D01*
X166922Y8906D01*
X166524Y9867D01*
X165890Y10693D01*
X165064Y11327D01*
X164600Y11519D01*
Y19918D01*
X171064Y26381D01*
X171379Y26275D01*
X171542Y26152D01*
Y11519D01*
X171077Y11327D01*
X170252Y10693D01*
X169618Y9867D01*
X169220Y8906D01*
X169084Y7874D01*
X169220Y6842D01*
X169618Y5881D01*
X170252Y5055D01*
X171077Y4421D01*
X172039Y4023D01*
X173071Y3887D01*
X174103Y4023D01*
X175064Y4421D01*
X175890Y5055D01*
X176524Y5881D01*
X176922Y6842D01*
X177058Y7874D01*
X176922Y8906D01*
X176524Y9867D01*
X175890Y10693D01*
X175064Y11327D01*
X174600Y11519D01*
Y25587D01*
X181079Y32066D01*
X181542Y31875D01*
Y11519D01*
X181077Y11327D01*
X180252Y10693D01*
X179618Y9867D01*
X179220Y8906D01*
X179084Y7874D01*
X179220Y6842D01*
X179618Y5881D01*
X180252Y5055D01*
X181077Y4421D01*
X182039Y4023D01*
X183071Y3887D01*
X184103Y4023D01*
X185064Y4421D01*
X185890Y5055D01*
X186524Y5881D01*
X186922Y6842D01*
X187058Y7874D01*
X186922Y8906D01*
X186524Y9867D01*
X185890Y10693D01*
X185064Y11327D01*
X184600Y11519D01*
Y32437D01*
X206987Y54824D01*
X207318Y55320D01*
X207435Y55905D01*
Y82315D01*
X207318Y82900D01*
X206987Y83396D01*
X205466Y84917D01*
Y85587D01*
X205856Y85977D01*
X211417D01*
X211565Y86006D01*
X211990Y85581D01*
X211961Y85433D01*
Y79528D01*
X212053Y79063D01*
Y58311D01*
X191989Y38247D01*
X191658Y37751D01*
X191542Y37165D01*
Y11519D01*
X191077Y11327D01*
X190252Y10693D01*
X189618Y9867D01*
X189220Y8906D01*
X189084Y7874D01*
X189220Y6842D01*
X189618Y5881D01*
X190252Y5055D01*
X191077Y4421D01*
X192039Y4023D01*
X193071Y3887D01*
X194103Y4023D01*
X195064Y4421D01*
X195890Y5055D01*
X196524Y5881D01*
X196922Y6842D01*
X197058Y7874D01*
X196922Y8906D01*
X196524Y9867D01*
X195890Y10693D01*
X195064Y11327D01*
X194600Y11519D01*
Y36532D01*
X201161Y43093D01*
X201622Y42847D01*
X201541Y42441D01*
Y11519D01*
X201077Y11327D01*
X200252Y10693D01*
X199618Y9867D01*
X199220Y8906D01*
X199084Y7874D01*
X199220Y6842D01*
X199618Y5881D01*
X200252Y5055D01*
X201077Y4421D01*
X202039Y4023D01*
X203071Y3887D01*
X204103Y4023D01*
X205064Y4421D01*
X205890Y5055D01*
X206524Y5881D01*
X206922Y6842D01*
X207058Y7874D01*
X206922Y8906D01*
X206524Y9867D01*
X205890Y10693D01*
X205064Y11327D01*
X204600Y11519D01*
Y41807D01*
X211041Y48249D01*
X211542Y48042D01*
Y11519D01*
X211077Y11327D01*
X210252Y10693D01*
X209618Y9867D01*
X209220Y8906D01*
X209084Y7874D01*
X209220Y6842D01*
X209618Y5881D01*
X210252Y5055D01*
X211077Y4421D01*
X212039Y4023D01*
X213071Y3887D01*
X214103Y4023D01*
X215064Y4421D01*
X215890Y5055D01*
X216524Y5881D01*
X216922Y6842D01*
X217058Y7874D01*
X216922Y8906D01*
X216524Y9867D01*
X215890Y10693D01*
X215064Y11327D01*
X214600Y11519D01*
Y47870D01*
X217497Y50767D01*
X217959Y50576D01*
Y48228D01*
X218075Y47643D01*
X218407Y47147D01*
X221542Y44012D01*
Y11519D01*
X221077Y11327D01*
X220252Y10693D01*
X219618Y9867D01*
X219220Y8906D01*
X219084Y7874D01*
X219220Y6842D01*
X219618Y5881D01*
X220252Y5055D01*
X221077Y4421D01*
X222039Y4023D01*
X223071Y3887D01*
X224103Y4023D01*
X225064Y4421D01*
X225890Y5055D01*
X226524Y5881D01*
X226922Y6842D01*
X227058Y7874D01*
X226922Y8906D01*
X226524Y9867D01*
X225890Y10693D01*
X225064Y11327D01*
X224600Y11519D01*
Y44183D01*
X225100Y44390D01*
X231541Y37949D01*
Y11827D01*
X229118D01*
Y3921D01*
X237024D01*
Y11827D01*
X234600D01*
Y38583D01*
X234484Y39168D01*
X234152Y39664D01*
X222986Y50830D01*
Y66324D01*
X223448Y66515D01*
X230266Y59697D01*
Y51918D01*
X230382Y51333D01*
X230714Y50836D01*
X238234Y43316D01*
Y37800D01*
X237999Y37703D01*
X237267Y37142D01*
X236706Y36411D01*
X236354Y35559D01*
X236234Y34646D01*
X236354Y33732D01*
X236706Y32881D01*
X237267Y32149D01*
X237999Y31588D01*
X238850Y31236D01*
X239764Y31115D01*
X240677Y31236D01*
X241529Y31588D01*
X242260Y32149D01*
X242821Y32881D01*
X243174Y33732D01*
X243294Y34646D01*
X243174Y35559D01*
X242821Y36411D01*
X242260Y37142D01*
X241529Y37703D01*
X241293Y37800D01*
Y43949D01*
X241177Y44535D01*
X240845Y45031D01*
X233325Y52551D01*
Y57809D01*
X233787Y58000D01*
X245321Y46466D01*
Y42525D01*
X245085Y42427D01*
X244354Y41866D01*
X243793Y41135D01*
X243441Y40284D01*
X243320Y39370D01*
X243441Y38456D01*
X243793Y37605D01*
X244354Y36874D01*
X245085Y36313D01*
X245937Y35960D01*
X246850Y35840D01*
X247764Y35960D01*
X248616Y36313D01*
X249347Y36874D01*
X249908Y37605D01*
X250260Y38456D01*
X250381Y39370D01*
X250260Y40284D01*
X249908Y41135D01*
X249347Y41866D01*
X248616Y42427D01*
X248380Y42525D01*
Y46061D01*
X248880Y46094D01*
X248952Y45543D01*
X249305Y44692D01*
X249866Y43960D01*
X250597Y43400D01*
X251448Y43047D01*
X252362Y42926D01*
X253276Y43047D01*
X254127Y43400D01*
X254858Y43960D01*
X255419Y44692D01*
X255772Y45543D01*
X255892Y46457D01*
X255772Y47370D01*
X255419Y48222D01*
X254858Y48953D01*
X254127Y49514D01*
X253276Y49867D01*
X252362Y49987D01*
X251448Y49867D01*
X251213Y49769D01*
X246611Y54371D01*
Y55512D01*
X246494Y56097D01*
X246163Y56593D01*
X237462Y65293D01*
X237670Y65793D01*
X239130D01*
X258313Y46611D01*
Y21106D01*
X256556Y19349D01*
X256225Y18853D01*
X256108Y18268D01*
Y11519D01*
X255644Y11327D01*
X254819Y10693D01*
X254185Y9867D01*
X253787Y8906D01*
X253651Y7874D01*
X253787Y6842D01*
X254185Y5881D01*
X254819Y5055D01*
X255644Y4421D01*
X256606Y4023D01*
X257638Y3887D01*
X258670Y4023D01*
X259631Y4421D01*
X260457Y5055D01*
X261090Y5881D01*
X261489Y6842D01*
X261625Y7874D01*
X261489Y8906D01*
X261090Y9867D01*
X260457Y10693D01*
X259631Y11327D01*
X259167Y11519D01*
Y17634D01*
X260924Y19391D01*
X261256Y19887D01*
X261372Y20472D01*
Y46442D01*
X261834Y46633D01*
X266108Y42359D01*
Y11519D01*
X265644Y11327D01*
X264819Y10693D01*
X264185Y9867D01*
X263787Y8906D01*
X263651Y7874D01*
X263787Y6842D01*
X264185Y5881D01*
X264819Y5055D01*
X265644Y4421D01*
X266606Y4023D01*
X267638Y3887D01*
X268670Y4023D01*
X269631Y4421D01*
X270457Y5055D01*
X271091Y5881D01*
X271489Y6842D01*
X271625Y7874D01*
X271489Y8906D01*
X271091Y9867D01*
X270457Y10693D01*
X269631Y11327D01*
X269167Y11519D01*
Y42992D01*
X269051Y43577D01*
X268719Y44074D01*
X243131Y69662D01*
X243322Y70124D01*
X249760D01*
X251802Y68082D01*
X251667Y67907D01*
X251314Y67055D01*
X251194Y66142D01*
X251314Y65228D01*
X251667Y64377D01*
X252228Y63645D01*
X252959Y63085D01*
X253811Y62732D01*
X254724Y62612D01*
X255638Y62732D01*
X256489Y63085D01*
X257221Y63645D01*
X257782Y64377D01*
X257813Y64453D01*
X258313Y64353D01*
Y64173D01*
X258430Y63588D01*
X258761Y63092D01*
X273195Y48658D01*
Y22913D01*
X273311Y22328D01*
X273643Y21832D01*
X278840Y16635D01*
X279336Y16304D01*
X279921Y16187D01*
X289524D01*
X291384Y14327D01*
Y11552D01*
X290841Y11327D01*
X290016Y10693D01*
X289382Y9867D01*
X288984Y8906D01*
X288848Y7874D01*
X288984Y6842D01*
X289382Y5881D01*
X290016Y5055D01*
X290841Y4421D01*
X291803Y4023D01*
X292835Y3887D01*
X293866Y4023D01*
X294828Y4421D01*
X295654Y5055D01*
X296287Y5881D01*
X296686Y6842D01*
X296821Y7874D01*
X296686Y8906D01*
X296287Y9867D01*
X295654Y10693D01*
X294828Y11327D01*
X294443Y11486D01*
Y14961D01*
X294326Y15546D01*
X293995Y16042D01*
X291594Y18443D01*
X291801Y18943D01*
X300154D01*
X301305Y17792D01*
Y11519D01*
X300841Y11327D01*
X300015Y10693D01*
X299382Y9867D01*
X298984Y8906D01*
X298848Y7874D01*
X298984Y6842D01*
X299382Y5881D01*
X300015Y5055D01*
X300841Y4421D01*
X301803Y4023D01*
X302835Y3887D01*
X303867Y4023D01*
X304828Y4421D01*
X305654Y5055D01*
X306287Y5881D01*
X306686Y6842D01*
X306821Y7874D01*
X306686Y8906D01*
X306287Y9867D01*
X305654Y10693D01*
X304828Y11327D01*
X304364Y11519D01*
Y18425D01*
X304248Y19011D01*
X303916Y19507D01*
X301869Y21554D01*
X301373Y21885D01*
X300865Y21986D01*
X300914Y22486D01*
X308422D01*
X311305Y19603D01*
Y11519D01*
X310841Y11327D01*
X310016Y10693D01*
X309382Y9867D01*
X308984Y8906D01*
X308848Y7874D01*
X308984Y6842D01*
X309382Y5881D01*
X310016Y5055D01*
X310841Y4421D01*
X311803Y4023D01*
X312835Y3887D01*
X313866Y4023D01*
X314828Y4421D01*
X315654Y5055D01*
X316287Y5881D01*
X316686Y6842D01*
X316822Y7874D01*
X316686Y8906D01*
X316287Y9867D01*
X315654Y10693D01*
X314828Y11327D01*
X314364Y11519D01*
Y20236D01*
X314248Y20821D01*
X313916Y21318D01*
X310137Y25097D01*
X310079Y25136D01*
X310230Y25636D01*
X313146D01*
X321305Y17477D01*
Y11827D01*
X318882D01*
Y3921D01*
X326787D01*
Y11827D01*
X324364D01*
Y18110D01*
X324248Y18696D01*
X323916Y19192D01*
X319940Y23167D01*
X320147Y23667D01*
X330668D01*
X336581Y17755D01*
Y11519D01*
X336117Y11327D01*
X335291Y10693D01*
X334658Y9867D01*
X334259Y8906D01*
X334123Y7874D01*
X334259Y6842D01*
X334658Y5881D01*
X335291Y5055D01*
X336117Y4421D01*
X337078Y4023D01*
X338110Y3887D01*
X339142Y4023D01*
X340104Y4421D01*
X340929Y5055D01*
X341563Y5881D01*
X341961Y6842D01*
X342097Y7874D01*
X341961Y8906D01*
X341563Y9867D01*
X340929Y10693D01*
X340104Y11327D01*
X339640Y11519D01*
Y18388D01*
X339523Y18974D01*
X339192Y19470D01*
X332383Y26278D01*
X331887Y26610D01*
X331302Y26726D01*
X320319D01*
X316042Y31003D01*
X315546Y31334D01*
X314961Y31451D01*
X290397D01*
X290112Y31736D01*
Y55118D01*
X289996Y55703D01*
X289664Y56200D01*
X272002Y73862D01*
Y81102D01*
X271885Y81688D01*
X271554Y82184D01*
X258288Y95450D01*
X258479Y95912D01*
X265311D01*
X283510Y77713D01*
Y66929D01*
X283626Y66344D01*
X283958Y65848D01*
X320572Y29234D01*
X321068Y28902D01*
X321654Y28786D01*
X332595D01*
X346581Y14800D01*
Y11519D01*
X346117Y11327D01*
X345291Y10693D01*
X344657Y9867D01*
X344259Y8906D01*
X344123Y7874D01*
X344259Y6842D01*
X344657Y5881D01*
X345291Y5055D01*
X346117Y4421D01*
X347078Y4023D01*
X348110Y3887D01*
X349142Y4023D01*
X350104Y4421D01*
X350929Y5055D01*
X351563Y5881D01*
X351961Y6842D01*
X352097Y7874D01*
X351961Y8906D01*
X351563Y9867D01*
X350929Y10693D01*
X350104Y11327D01*
X349640Y11519D01*
Y15433D01*
X349523Y16018D01*
X349192Y16514D01*
X334310Y31396D01*
X334252Y31435D01*
X334403Y31935D01*
X341493D01*
X356581Y16847D01*
Y11519D01*
X356117Y11327D01*
X355291Y10693D01*
X354658Y9867D01*
X354259Y8906D01*
X354123Y7874D01*
X354259Y6842D01*
X354658Y5881D01*
X355291Y5055D01*
X356117Y4421D01*
X357078Y4023D01*
X358110Y3887D01*
X359142Y4023D01*
X360104Y4421D01*
X360929Y5055D01*
X361563Y5881D01*
X361961Y6842D01*
X362097Y7874D01*
X361961Y8906D01*
X361563Y9867D01*
X360929Y10693D01*
X360104Y11327D01*
X359640Y11519D01*
Y17480D01*
X359523Y18066D01*
X359192Y18562D01*
X343207Y34546D01*
X342711Y34877D01*
X342126Y34994D01*
X323468D01*
X289325Y69137D01*
Y78740D01*
X289208Y79325D01*
X288877Y79822D01*
X269312Y99387D01*
X269503Y99849D01*
X308618D01*
X331596Y76871D01*
X332092Y76540D01*
X332677Y76423D01*
X344488D01*
X345074Y76540D01*
X345570Y76871D01*
X348325Y79627D01*
X348657Y80123D01*
X348774Y80709D01*
X348657Y81294D01*
X348325Y81790D01*
X342026Y88089D01*
X341530Y88421D01*
X340945Y88537D01*
X339216D01*
X339167Y88586D01*
Y90030D01*
X339552Y90189D01*
X340345Y90797D01*
X340953Y91590D01*
X341316Y92466D01*
X341444Y92513D01*
X341705D01*
X341834Y92466D01*
X342197Y91590D01*
X342805Y90797D01*
X343598Y90189D01*
X344521Y89806D01*
X345512Y89676D01*
X346503Y89806D01*
X347426Y90189D01*
X348219Y90797D01*
X348827Y91590D01*
X348986Y91975D01*
X350984D01*
X351570Y92091D01*
X352066Y92422D01*
X353837Y94194D01*
X354169Y94690D01*
X354285Y95276D01*
Y105118D01*
X354169Y105703D01*
X353837Y106200D01*
X348719Y111318D01*
X348223Y111649D01*
X347638Y111766D01*
X336963D01*
Y147281D01*
X337178Y147371D01*
X337901Y147925D01*
X338456Y148649D01*
X338805Y149490D01*
X338924Y150394D01*
X338805Y151297D01*
X338456Y152139D01*
X337901Y152862D01*
X337178Y153417D01*
X336336Y153765D01*
X335433Y153884D01*
X334530Y153765D01*
X333688Y153417D01*
X332965Y152862D01*
X332410Y152139D01*
X332062Y151297D01*
X331943Y150394D01*
X332062Y149490D01*
X332410Y148649D01*
X332965Y147925D01*
X333688Y147371D01*
X333904Y147281D01*
Y111766D01*
X333858D01*
X333273Y111649D01*
X332777Y111318D01*
X326335Y104876D01*
X254149D01*
X253957Y105338D01*
X261711Y113092D01*
X262043Y113588D01*
X262159Y114173D01*
Y164721D01*
X264413Y166974D01*
X299606D01*
X300192Y167091D01*
X300688Y167422D01*
X313916Y180651D01*
X314248Y181147D01*
X314364Y181732D01*
Y185331D01*
X314828Y185524D01*
X315654Y186157D01*
X316287Y186983D01*
X316686Y187944D01*
X316822Y188976D01*
X316686Y190008D01*
X316287Y190970D01*
X315654Y191796D01*
X314828Y192429D01*
X313866Y192827D01*
X312835Y192963D01*
D02*
G37*
G36*
X382784Y179815D02*
X378768D01*
Y175798D01*
X379454Y175889D01*
X380559Y176346D01*
X381508Y177075D01*
X382236Y178024D01*
X382694Y179129D01*
X382784Y179815D01*
D02*
G37*
G36*
X377768D02*
X373751D01*
X373841Y179129D01*
X374299Y178024D01*
X375027Y177075D01*
X375976Y176346D01*
X377082Y175889D01*
X377768Y175798D01*
Y179815D01*
D02*
G37*
G36*
X362811Y184858D02*
X353724D01*
Y175772D01*
X362811D01*
Y184858D01*
D02*
G37*
G36*
X99228Y178634D02*
X95776D01*
Y175181D01*
X99228D01*
Y178634D01*
D02*
G37*
G36*
X94776D02*
X91323D01*
Y175181D01*
X94776D01*
Y178634D01*
D02*
G37*
G36*
X105276Y183121D02*
X104244Y182985D01*
X103282Y182587D01*
X102456Y181953D01*
X101823Y181127D01*
X101425Y180166D01*
X101289Y179134D01*
X101425Y178102D01*
X101823Y177140D01*
X102456Y176315D01*
X103282Y175681D01*
X104244Y175283D01*
X105276Y175147D01*
X106307Y175283D01*
X107269Y175681D01*
X108095Y176315D01*
X108728Y177140D01*
X109127Y178102D01*
X109262Y179134D01*
X109127Y180166D01*
X108728Y181127D01*
X108095Y181953D01*
X107269Y182587D01*
X106307Y182985D01*
X105276Y183121D01*
D02*
G37*
G36*
X140157Y174809D02*
X139280Y174693D01*
X138462Y174354D01*
X137759Y173815D01*
X137221Y173113D01*
X136882Y172295D01*
X136766Y171417D01*
X136882Y170540D01*
X137221Y169722D01*
X137759Y169019D01*
X138462Y168480D01*
X139280Y168142D01*
X140157Y168026D01*
X141035Y168142D01*
X141853Y168480D01*
X142555Y169019D01*
X143094Y169722D01*
X143433Y170540D01*
X143549Y171417D01*
X143433Y172295D01*
X143094Y173113D01*
X142555Y173815D01*
X141853Y174354D01*
X141035Y174693D01*
X140157Y174809D01*
D02*
G37*
G36*
X126136D02*
X125259Y174693D01*
X124441Y174354D01*
X123738Y173815D01*
X123199Y173113D01*
X122861Y172295D01*
X122745Y171417D01*
X122861Y170540D01*
X123199Y169722D01*
X123738Y169019D01*
X124441Y168480D01*
X125259Y168142D01*
X126136Y168026D01*
X127014Y168142D01*
X127832Y168480D01*
X128534Y169019D01*
X129073Y169722D01*
X129412Y170540D01*
X129528Y171417D01*
X129412Y172295D01*
X129073Y173113D01*
X128534Y173815D01*
X127832Y174354D01*
X127014Y174693D01*
X126136Y174809D01*
D02*
G37*
G36*
X140157Y164808D02*
X139280Y164693D01*
X138462Y164354D01*
X137759Y163815D01*
X137221Y163113D01*
X136882Y162295D01*
X136766Y161417D01*
X136882Y160540D01*
X137221Y159722D01*
X137759Y159019D01*
X138462Y158480D01*
X139280Y158142D01*
X140157Y158026D01*
X141035Y158142D01*
X141853Y158480D01*
X142555Y159019D01*
X143094Y159722D01*
X143433Y160540D01*
X143549Y161417D01*
X143433Y162295D01*
X143094Y163113D01*
X142555Y163815D01*
X141853Y164354D01*
X141035Y164693D01*
X140157Y164808D01*
D02*
G37*
G36*
X126136D02*
X125259Y164693D01*
X124441Y164354D01*
X123738Y163815D01*
X123199Y163113D01*
X122861Y162295D01*
X122745Y161417D01*
X122861Y160540D01*
X123199Y159722D01*
X123738Y159019D01*
X124441Y158480D01*
X125259Y158142D01*
X126136Y158026D01*
X127014Y158142D01*
X127832Y158480D01*
X128534Y159019D01*
X129073Y159722D01*
X129412Y160540D01*
X129528Y161417D01*
X129412Y162295D01*
X129073Y163113D01*
X128534Y163815D01*
X127832Y164354D01*
X127014Y164693D01*
X126136Y164808D01*
D02*
G37*
G36*
X389476Y154708D02*
Y151287D01*
X392897D01*
X392827Y151819D01*
X392429Y152781D01*
X391795Y153606D01*
X390970Y154240D01*
X390008Y154638D01*
X389476Y154708D01*
D02*
G37*
G36*
X388476Y154708D02*
X387945Y154638D01*
X386983Y154240D01*
X386157Y153606D01*
X385524Y152781D01*
X385125Y151819D01*
X385055Y151287D01*
X388476D01*
Y154708D01*
D02*
G37*
G36*
X288689Y153818D02*
Y150894D01*
X291614D01*
X291561Y151297D01*
X291212Y152139D01*
X290657Y152862D01*
X289934Y153417D01*
X289092Y153765D01*
X288689Y153818D01*
D02*
G37*
G36*
X287689Y153818D02*
X287286Y153765D01*
X286444Y153417D01*
X285721Y152862D01*
X285166Y152139D01*
X284817Y151297D01*
X284764Y150894D01*
X287689D01*
Y153818D01*
D02*
G37*
G36*
Y149894D02*
X284764D01*
X284817Y149490D01*
X285166Y148649D01*
X285721Y147925D01*
X286444Y147371D01*
X287286Y147022D01*
X287689Y146969D01*
Y149894D01*
D02*
G37*
G36*
X291614D02*
X288689D01*
Y146969D01*
X289092Y147022D01*
X289934Y147371D01*
X290657Y147925D01*
X291212Y148649D01*
X291561Y149490D01*
X291614Y149894D01*
D02*
G37*
G36*
X392897Y150287D02*
X389476D01*
Y146866D01*
X390008Y146936D01*
X390970Y147335D01*
X391795Y147968D01*
X392429Y148794D01*
X392827Y149756D01*
X392897Y150287D01*
D02*
G37*
G36*
X388476D02*
X385055D01*
X385125Y149756D01*
X385524Y148794D01*
X386157Y147968D01*
X386983Y147335D01*
X387945Y146936D01*
X388476Y146866D01*
Y150287D01*
D02*
G37*
G36*
X352929Y154740D02*
X345024D01*
Y146835D01*
X352929D01*
Y154740D01*
D02*
G37*
G36*
X200787Y152309D02*
X199884Y152190D01*
X199042Y151842D01*
X198319Y151287D01*
X197765Y150564D01*
X197416Y149722D01*
X197297Y148819D01*
X197416Y147915D01*
X197765Y147074D01*
X198319Y146351D01*
X199042Y145796D01*
X199884Y145447D01*
X200787Y145328D01*
X201691Y145447D01*
X202533Y145796D01*
X203256Y146351D01*
X203810Y147074D01*
X204159Y147915D01*
X204278Y148819D01*
X204159Y149722D01*
X203810Y150564D01*
X203256Y151287D01*
X202533Y151842D01*
X201691Y152190D01*
X200787Y152309D01*
D02*
G37*
G36*
X109949Y138070D02*
Y135146D01*
X112873D01*
X112820Y135549D01*
X112472Y136391D01*
X111917Y137114D01*
X111194Y137669D01*
X110352Y138017D01*
X109949Y138070D01*
D02*
G37*
G36*
X108949Y138070D02*
X108545Y138017D01*
X107704Y137669D01*
X106981Y137114D01*
X106426Y136391D01*
X106077Y135549D01*
X106024Y135146D01*
X108949D01*
Y138070D01*
D02*
G37*
G36*
Y134146D02*
X106024D01*
X106077Y133742D01*
X106426Y132900D01*
X106981Y132177D01*
X107704Y131623D01*
X108545Y131274D01*
X108949Y131221D01*
Y134146D01*
D02*
G37*
G36*
X112873D02*
X109949D01*
Y131221D01*
X110352Y131274D01*
X111194Y131623D01*
X111917Y132177D01*
X112472Y132900D01*
X112820Y133742D01*
X112873Y134146D01*
D02*
G37*
G36*
X368268Y184897D02*
X367082Y184741D01*
X365977Y184283D01*
X365027Y183555D01*
X364299Y182606D01*
X363841Y181501D01*
X363685Y180315D01*
X363841Y179129D01*
X364299Y178024D01*
X365027Y177075D01*
X365977Y176346D01*
X366738Y176031D01*
Y172444D01*
X363540Y169246D01*
X325590D01*
X325005Y169130D01*
X324509Y168798D01*
X319942Y164231D01*
X319611Y163735D01*
X319494Y163150D01*
Y123585D01*
X319278Y123495D01*
X318555Y122941D01*
X318001Y122218D01*
X317911Y122002D01*
X302719D01*
X302629Y122218D01*
X302074Y122941D01*
X301351Y123495D01*
X300510Y123844D01*
X299606Y123963D01*
X298703Y123844D01*
X297861Y123495D01*
X297138Y122941D01*
X296583Y122218D01*
X296235Y121376D01*
X296116Y120472D01*
X296235Y119569D01*
X296583Y118727D01*
X297138Y118004D01*
X297861Y117450D01*
X298703Y117101D01*
X299606Y116982D01*
X300510Y117101D01*
X301351Y117450D01*
X302074Y118004D01*
X302629Y118727D01*
X302719Y118943D01*
X317911D01*
X318001Y118727D01*
X318555Y118004D01*
X319278Y117449D01*
X320120Y117101D01*
X321024Y116982D01*
X321927Y117101D01*
X322769Y117449D01*
X323492Y118004D01*
X324046Y118727D01*
X324395Y119569D01*
X324514Y120472D01*
X324395Y121376D01*
X324046Y122218D01*
X323492Y122941D01*
X322769Y123495D01*
X322553Y123585D01*
Y162516D01*
X326224Y166187D01*
X364173D01*
X364758Y166304D01*
X365255Y166635D01*
X369349Y170730D01*
X369681Y171226D01*
X369797Y171811D01*
Y176031D01*
X370559Y176346D01*
X371508Y177075D01*
X372236Y178024D01*
X372694Y179129D01*
X372850Y180315D01*
X372694Y181501D01*
X372236Y182606D01*
X371508Y183555D01*
X370559Y184283D01*
X369454Y184741D01*
X368268Y184897D01*
D02*
G37*
G36*
X278346Y123963D02*
X277443Y123844D01*
X276601Y123495D01*
X275878Y122941D01*
X275324Y122218D01*
X274975Y121376D01*
X274856Y120473D01*
X274975Y119569D01*
X275324Y118727D01*
X275878Y118004D01*
X276601Y117450D01*
X277443Y117101D01*
X278346Y116982D01*
X279250Y117101D01*
X280092Y117450D01*
X280815Y118004D01*
X281369Y118727D01*
X281718Y119569D01*
X281837Y120473D01*
X281718Y121376D01*
X281369Y122218D01*
X280815Y122941D01*
X280092Y123495D01*
X279250Y123844D01*
X278346Y123963D01*
D02*
G37*
G36*
X109843Y119238D02*
X108939Y119120D01*
X108097Y118771D01*
X107374Y118216D01*
X106820Y117493D01*
X106567Y116884D01*
X97494D01*
X97425Y117050D01*
X96886Y117752D01*
X96184Y118291D01*
X95366Y118630D01*
X94488Y118746D01*
X93611Y118630D01*
X92793Y118291D01*
X92090Y117752D01*
X91551Y117050D01*
X91212Y116232D01*
X91097Y115354D01*
X91212Y114477D01*
X91551Y113659D01*
X92090Y112956D01*
X92793Y112417D01*
X93611Y112079D01*
X94488Y111963D01*
X95366Y112079D01*
X96184Y112417D01*
X96886Y112956D01*
X97425Y113659D01*
X97494Y113825D01*
X106956D01*
X107374Y113280D01*
X108097Y112725D01*
X108939Y112376D01*
X109843Y112258D01*
X110746Y112376D01*
X111588Y112725D01*
X112311Y113280D01*
X112865Y114003D01*
X113214Y114845D01*
X113333Y115748D01*
X113214Y116651D01*
X112865Y117493D01*
X112311Y118216D01*
X111588Y118771D01*
X110746Y119120D01*
X109843Y119238D01*
D02*
G37*
G36*
X169291Y123627D02*
X168414Y123512D01*
X167596Y123173D01*
X166893Y122634D01*
X166355Y121932D01*
X166016Y121114D01*
X165900Y120236D01*
X166016Y119359D01*
X166355Y118541D01*
X166893Y117838D01*
X167596Y117299D01*
X168414Y116961D01*
X169291Y116845D01*
X170169Y116961D01*
X170987Y117299D01*
X171689Y117838D01*
X172228Y118541D01*
X172567Y119359D01*
X172683Y120236D01*
X172567Y121114D01*
X172228Y121932D01*
X171689Y122634D01*
X170987Y123173D01*
X170169Y123512D01*
X169291Y123627D01*
D02*
G37*
G36*
X356181Y129955D02*
X354654Y129805D01*
X353185Y129359D01*
X351832Y128636D01*
X350645Y127662D01*
X349672Y126476D01*
X348948Y125122D01*
X348502Y123653D01*
X348352Y122126D01*
X348502Y120599D01*
X348948Y119130D01*
X349672Y117776D01*
X350645Y116590D01*
X351832Y115616D01*
X353185Y114893D01*
X354654Y114447D01*
X356181Y114297D01*
X357709Y114447D01*
X359177Y114893D01*
X360531Y115616D01*
X361717Y116590D01*
X362691Y117776D01*
X363414Y119130D01*
X363860Y120599D01*
X364010Y122126D01*
X363860Y123653D01*
X363414Y125122D01*
X362691Y126476D01*
X361717Y127662D01*
X360531Y128636D01*
X359177Y129359D01*
X357709Y129805D01*
X356181Y129955D01*
D02*
G37*
G36*
X87850Y118717D02*
X81126D01*
Y111992D01*
X87850D01*
Y118717D01*
D02*
G37*
G36*
X278847Y76653D02*
Y73728D01*
X281771D01*
X281718Y74132D01*
X281369Y74974D01*
X280815Y75696D01*
X280092Y76251D01*
X279250Y76600D01*
X278847Y76653D01*
D02*
G37*
G36*
X277847Y76653D02*
X277443Y76600D01*
X276601Y76251D01*
X275878Y75696D01*
X275324Y74974D01*
X274975Y74132D01*
X274922Y73728D01*
X277847D01*
Y76653D01*
D02*
G37*
G36*
X321524Y76653D02*
Y73728D01*
X324448D01*
X324395Y74132D01*
X324046Y74974D01*
X323492Y75696D01*
X322769Y76251D01*
X321927Y76600D01*
X321524Y76653D01*
D02*
G37*
G36*
X320524D02*
X320120Y76600D01*
X319278Y76251D01*
X318555Y75696D01*
X318001Y74974D01*
X317652Y74132D01*
X317599Y73728D01*
X320524D01*
Y76653D01*
D02*
G37*
G36*
X152362Y78746D02*
X151485Y78630D01*
X150667Y78291D01*
X149964Y77752D01*
X149425Y77050D01*
X149086Y76232D01*
X148971Y75354D01*
X149086Y74477D01*
X149425Y73659D01*
X149964Y72956D01*
X150667Y72417D01*
X151485Y72079D01*
X152362Y71963D01*
X153240Y72079D01*
X154058Y72417D01*
X154760Y72956D01*
X155299Y73659D01*
X155638Y74477D01*
X155753Y75354D01*
X155638Y76232D01*
X155299Y77050D01*
X154760Y77752D01*
X154058Y78291D01*
X153240Y78630D01*
X152362Y78746D01*
D02*
G37*
G36*
X138189D02*
X137311Y78630D01*
X136493Y78291D01*
X135791Y77752D01*
X135252Y77050D01*
X134913Y76232D01*
X134798Y75354D01*
X134913Y74477D01*
X135252Y73659D01*
X135791Y72956D01*
X136493Y72417D01*
X137311Y72079D01*
X138189Y71963D01*
X139067Y72079D01*
X139885Y72417D01*
X140587Y72956D01*
X141126Y73659D01*
X141465Y74477D01*
X141580Y75354D01*
X141465Y76232D01*
X141126Y77050D01*
X140587Y77752D01*
X139885Y78291D01*
X139067Y78630D01*
X138189Y78746D01*
D02*
G37*
G36*
X124409Y78746D02*
X123532Y78630D01*
X122714Y78291D01*
X122011Y77752D01*
X121473Y77050D01*
X121134Y76232D01*
X121018Y75354D01*
X121134Y74477D01*
X121473Y73659D01*
X122011Y72956D01*
X122714Y72417D01*
X123532Y72079D01*
X124409Y71963D01*
X125287Y72079D01*
X126105Y72417D01*
X126807Y72956D01*
X127346Y73659D01*
X127685Y74477D01*
X127801Y75354D01*
X127685Y76232D01*
X127346Y77050D01*
X126807Y77752D01*
X126105Y78291D01*
X125287Y78630D01*
X124409Y78746D01*
D02*
G37*
G36*
X111417D02*
X110540Y78630D01*
X109722Y78291D01*
X109019Y77752D01*
X108480Y77050D01*
X108142Y76232D01*
X108026Y75354D01*
X108142Y74477D01*
X108480Y73659D01*
X109019Y72956D01*
X109722Y72417D01*
X110540Y72079D01*
X111417Y71963D01*
X112295Y72079D01*
X113113Y72417D01*
X113815Y72956D01*
X114354Y73659D01*
X114693Y74477D01*
X114808Y75354D01*
X114693Y76232D01*
X114354Y77050D01*
X113815Y77752D01*
X113113Y78291D01*
X112295Y78630D01*
X111417Y78746D01*
D02*
G37*
G36*
X98425D02*
X97548Y78630D01*
X96730Y78291D01*
X96027Y77752D01*
X95488Y77050D01*
X95149Y76232D01*
X95034Y75354D01*
X95149Y74477D01*
X95488Y73659D01*
X96027Y72956D01*
X96730Y72417D01*
X97548Y72079D01*
X98425Y71963D01*
X99303Y72079D01*
X100121Y72417D01*
X100823Y72956D01*
X101362Y73659D01*
X101701Y74477D01*
X101816Y75354D01*
X101701Y76232D01*
X101362Y77050D01*
X100823Y77752D01*
X100121Y78291D01*
X99303Y78630D01*
X98425Y78746D01*
D02*
G37*
G36*
X83465D02*
X82587Y78630D01*
X81769Y78291D01*
X81067Y77752D01*
X80528Y77050D01*
X80189Y76232D01*
X80073Y75354D01*
X80189Y74477D01*
X80528Y73659D01*
X81067Y72956D01*
X81769Y72417D01*
X82587Y72079D01*
X83465Y71963D01*
X84342Y72079D01*
X85160Y72417D01*
X85862Y72956D01*
X86401Y73659D01*
X86740Y74477D01*
X86856Y75354D01*
X86740Y76232D01*
X86401Y77050D01*
X85862Y77752D01*
X85160Y78291D01*
X84342Y78630D01*
X83465Y78746D01*
D02*
G37*
G36*
X281771Y72728D02*
X278847D01*
Y69804D01*
X279250Y69857D01*
X280092Y70205D01*
X280815Y70760D01*
X281369Y71483D01*
X281718Y72325D01*
X281771Y72728D01*
D02*
G37*
G36*
X277847D02*
X274922D01*
X274975Y72325D01*
X275324Y71483D01*
X275878Y70760D01*
X276601Y70205D01*
X277443Y69857D01*
X277847Y69804D01*
Y72728D01*
D02*
G37*
G36*
X324448Y72728D02*
X321524D01*
Y69804D01*
X321927Y69857D01*
X322769Y70205D01*
X323492Y70760D01*
X324046Y71483D01*
X324395Y72325D01*
X324448Y72728D01*
D02*
G37*
G36*
X320524D02*
X317599D01*
X317652Y72325D01*
X318001Y71483D01*
X318555Y70760D01*
X319278Y70205D01*
X320120Y69857D01*
X320524Y69804D01*
Y72728D01*
D02*
G37*
G36*
X299606Y76719D02*
X298703Y76600D01*
X297861Y76251D01*
X297138Y75696D01*
X296583Y74974D01*
X296235Y74132D01*
X296116Y73228D01*
X296235Y72325D01*
X296583Y71483D01*
X297138Y70760D01*
X297861Y70205D01*
X298703Y69857D01*
X299606Y69738D01*
X300510Y69857D01*
X301351Y70205D01*
X302074Y70760D01*
X302629Y71483D01*
X302978Y72325D01*
X303097Y73228D01*
X302978Y74132D01*
X302629Y74974D01*
X302074Y75696D01*
X301351Y76251D01*
X300510Y76600D01*
X299606Y76719D01*
D02*
G37*
G36*
X356181Y82553D02*
X354654Y82403D01*
X353185Y81958D01*
X351832Y81234D01*
X350645Y80260D01*
X349672Y79074D01*
X348948Y77720D01*
X348502Y76252D01*
X348352Y74724D01*
X348502Y73197D01*
X348948Y71728D01*
X349672Y70375D01*
X350645Y69188D01*
X351832Y68215D01*
X353185Y67491D01*
X354654Y67046D01*
X356181Y66895D01*
X357709Y67046D01*
X359177Y67491D01*
X360531Y68215D01*
X361717Y69188D01*
X362691Y70375D01*
X363414Y71728D01*
X363860Y73197D01*
X364010Y74724D01*
X363860Y76252D01*
X363414Y77720D01*
X362691Y79074D01*
X361717Y80260D01*
X360531Y81234D01*
X359177Y81958D01*
X357709Y82403D01*
X356181Y82553D01*
D02*
G37*
G36*
X124909Y68680D02*
Y65854D01*
X127735D01*
X127685Y66232D01*
X127346Y67050D01*
X126807Y67752D01*
X126105Y68291D01*
X125287Y68630D01*
X124909Y68680D01*
D02*
G37*
G36*
X138689Y68680D02*
Y65854D01*
X141514D01*
X141465Y66232D01*
X141126Y67050D01*
X140587Y67752D01*
X139885Y68291D01*
X139067Y68630D01*
X138689Y68680D01*
D02*
G37*
G36*
X123909Y68680D02*
X123532Y68630D01*
X122714Y68291D01*
X122011Y67752D01*
X121473Y67050D01*
X121134Y66232D01*
X121084Y65854D01*
X123909D01*
Y68680D01*
D02*
G37*
G36*
X137689Y68680D02*
X137311Y68630D01*
X136493Y68291D01*
X135791Y67752D01*
X135252Y67050D01*
X134913Y66232D01*
X134864Y65854D01*
X137689D01*
Y68680D01*
D02*
G37*
G36*
X152862Y68680D02*
Y65854D01*
X155688D01*
X155638Y66232D01*
X155299Y67050D01*
X154760Y67752D01*
X154058Y68291D01*
X153240Y68630D01*
X152862Y68680D01*
D02*
G37*
G36*
X151862Y68680D02*
X151485Y68630D01*
X150667Y68291D01*
X149964Y67752D01*
X149425Y67050D01*
X149086Y66232D01*
X149037Y65854D01*
X151862D01*
Y68680D01*
D02*
G37*
G36*
X83965Y68680D02*
Y65854D01*
X86790D01*
X86740Y66232D01*
X86401Y67050D01*
X85862Y67752D01*
X85160Y68291D01*
X84342Y68630D01*
X83965Y68680D01*
D02*
G37*
G36*
X82965Y68680D02*
X82587Y68630D01*
X81769Y68291D01*
X81067Y67752D01*
X80528Y67050D01*
X80189Y66232D01*
X80139Y65854D01*
X82965D01*
Y68680D01*
D02*
G37*
G36*
X98925Y68680D02*
Y65854D01*
X101751D01*
X101701Y66232D01*
X101362Y67050D01*
X100823Y67752D01*
X100121Y68291D01*
X99303Y68630D01*
X98925Y68680D01*
D02*
G37*
G36*
X97925Y68680D02*
X97548Y68630D01*
X96730Y68291D01*
X96027Y67752D01*
X95488Y67050D01*
X95149Y66232D01*
X95100Y65854D01*
X97925D01*
Y68680D01*
D02*
G37*
G36*
X111917Y68680D02*
Y65854D01*
X114743D01*
X114693Y66232D01*
X114354Y67050D01*
X113815Y67752D01*
X113113Y68291D01*
X112295Y68630D01*
X111917Y68680D01*
D02*
G37*
G36*
X110917Y68680D02*
X110540Y68630D01*
X109722Y68291D01*
X109019Y67752D01*
X108480Y67050D01*
X108142Y66232D01*
X108092Y65854D01*
X110917D01*
Y68680D01*
D02*
G37*
G36*
X188976Y69375D02*
X188099Y69260D01*
X187281Y68921D01*
X186578Y68382D01*
X186039Y67680D01*
X185701Y66862D01*
X185585Y65984D01*
X185701Y65106D01*
X186039Y64289D01*
X186578Y63586D01*
X187281Y63047D01*
X188099Y62709D01*
X188976Y62593D01*
X189854Y62709D01*
X190672Y63047D01*
X191374Y63586D01*
X191913Y64289D01*
X192252Y65106D01*
X192368Y65984D01*
X192252Y66862D01*
X191913Y67680D01*
X191374Y68382D01*
X190672Y68921D01*
X189854Y69260D01*
X188976Y69375D01*
D02*
G37*
G36*
X177559Y69139D02*
X176681Y69024D01*
X175863Y68685D01*
X175161Y68146D01*
X174622Y67444D01*
X174283Y66626D01*
X174168Y65748D01*
X174283Y64870D01*
X174622Y64052D01*
X175161Y63350D01*
X175863Y62811D01*
X176681Y62472D01*
X177559Y62357D01*
X178437Y62472D01*
X179255Y62811D01*
X179957Y63350D01*
X180496Y64052D01*
X180835Y64870D01*
X180950Y65748D01*
X180835Y66626D01*
X180496Y67444D01*
X179957Y68146D01*
X179255Y68685D01*
X178437Y69024D01*
X177559Y69139D01*
D02*
G37*
G36*
X165748D02*
X164870Y69024D01*
X164052Y68685D01*
X163350Y68146D01*
X162811Y67444D01*
X162472Y66626D01*
X162357Y65748D01*
X162472Y64870D01*
X162811Y64052D01*
X163350Y63350D01*
X164052Y62811D01*
X164870Y62472D01*
X165748Y62357D01*
X166626Y62472D01*
X167444Y62811D01*
X168146Y63350D01*
X168685Y64052D01*
X169024Y64870D01*
X169139Y65748D01*
X169024Y66626D01*
X168685Y67444D01*
X168146Y68146D01*
X167444Y68685D01*
X166626Y69024D01*
X165748Y69139D01*
D02*
G37*
G36*
X137689Y64854D02*
X134864D01*
X134913Y64477D01*
X135252Y63659D01*
X135791Y62956D01*
X136493Y62418D01*
X137311Y62079D01*
X137689Y62029D01*
Y64854D01*
D02*
G37*
G36*
X151862Y64854D02*
X149037D01*
X149086Y64477D01*
X149425Y63659D01*
X149964Y62956D01*
X150667Y62418D01*
X151485Y62079D01*
X151862Y62029D01*
Y64854D01*
D02*
G37*
G36*
X114743Y64854D02*
X111917D01*
Y62029D01*
X112295Y62079D01*
X113113Y62417D01*
X113815Y62956D01*
X114354Y63659D01*
X114693Y64477D01*
X114743Y64854D01*
D02*
G37*
G36*
X123909Y64854D02*
X121084D01*
X121134Y64477D01*
X121473Y63659D01*
X122011Y62956D01*
X122714Y62417D01*
X123532Y62079D01*
X123909Y62029D01*
Y64854D01*
D02*
G37*
G36*
X155688Y64854D02*
X152862D01*
Y62029D01*
X153240Y62079D01*
X154058Y62418D01*
X154760Y62956D01*
X155299Y63659D01*
X155638Y64477D01*
X155688Y64854D01*
D02*
G37*
G36*
X101751Y64854D02*
X98925D01*
Y62029D01*
X99303Y62079D01*
X100121Y62417D01*
X100823Y62956D01*
X101362Y63659D01*
X101701Y64477D01*
X101751Y64854D01*
D02*
G37*
G36*
X86790Y64854D02*
X83965D01*
Y62029D01*
X84342Y62079D01*
X85160Y62417D01*
X85862Y62956D01*
X86401Y63659D01*
X86740Y64477D01*
X86790Y64854D01*
D02*
G37*
G36*
X141514Y64854D02*
X138689D01*
Y62029D01*
X139067Y62079D01*
X139885Y62418D01*
X140587Y62956D01*
X141126Y63659D01*
X141465Y64477D01*
X141514Y64854D01*
D02*
G37*
G36*
X82965Y64854D02*
X80139D01*
X80189Y64477D01*
X80528Y63659D01*
X81067Y62956D01*
X81769Y62417D01*
X82587Y62079D01*
X82965Y62029D01*
Y64854D01*
D02*
G37*
G36*
X97925Y64854D02*
X95100D01*
X95149Y64477D01*
X95488Y63659D01*
X96027Y62956D01*
X96730Y62417D01*
X97548Y62079D01*
X97925Y62029D01*
Y64854D01*
D02*
G37*
G36*
X127735Y64854D02*
X124909D01*
Y62029D01*
X125287Y62079D01*
X126105Y62417D01*
X126807Y62956D01*
X127346Y63659D01*
X127685Y64477D01*
X127735Y64854D01*
D02*
G37*
G36*
X110917Y64854D02*
X108092D01*
X108142Y64477D01*
X108480Y63659D01*
X109019Y62956D01*
X109722Y62417D01*
X110540Y62079D01*
X110917Y62029D01*
Y64854D01*
D02*
G37*
G36*
X383071Y54963D02*
X382296Y54861D01*
X381574Y54562D01*
X380954Y54086D01*
X380478Y53466D01*
X380389Y53250D01*
X379848D01*
X379758Y53466D01*
X379282Y54086D01*
X378662Y54562D01*
X377940Y54861D01*
X377165Y54963D01*
X376390Y54861D01*
X375668Y54562D01*
X375048Y54086D01*
X374572Y53466D01*
X374273Y52743D01*
X374171Y51968D01*
X374273Y51194D01*
X374572Y50471D01*
X375048Y49851D01*
X375668Y49376D01*
X376390Y49076D01*
X377165Y48974D01*
X377940Y49076D01*
X378662Y49376D01*
X379282Y49851D01*
X379758Y50471D01*
X379848Y50687D01*
X380389D01*
X380478Y50471D01*
X380954Y49851D01*
X381574Y49376D01*
X382296Y49076D01*
X383071Y48974D01*
X383846Y49076D01*
X384568Y49376D01*
X385188Y49851D01*
X385664Y50471D01*
X385963Y51194D01*
X386065Y51968D01*
X385963Y52743D01*
X385664Y53466D01*
X385188Y54086D01*
X384568Y54562D01*
X383846Y54861D01*
X383071Y54963D01*
D02*
G37*
G36*
X357980Y55688D02*
Y52862D01*
X360806D01*
X360756Y53240D01*
X360417Y54058D01*
X359878Y54760D01*
X359176Y55299D01*
X358358Y55638D01*
X357980Y55688D01*
D02*
G37*
G36*
X356980D02*
X356603Y55638D01*
X355785Y55299D01*
X355082Y54760D01*
X354543Y54058D01*
X354205Y53240D01*
X354155Y52862D01*
X356980D01*
Y55688D01*
D02*
G37*
G36*
X109949Y53031D02*
Y50106D01*
X112873D01*
X112820Y50510D01*
X112472Y51351D01*
X111917Y52074D01*
X111194Y52629D01*
X110352Y52978D01*
X109949Y53031D01*
D02*
G37*
G36*
X108949Y53031D02*
X108545Y52978D01*
X107704Y52629D01*
X106981Y52074D01*
X106426Y51351D01*
X106077Y50510D01*
X106024Y50106D01*
X108949D01*
Y53031D01*
D02*
G37*
G36*
X360806Y51862D02*
X357980D01*
Y49037D01*
X358358Y49086D01*
X359176Y49425D01*
X359878Y49964D01*
X360417Y50667D01*
X360756Y51485D01*
X360806Y51862D01*
D02*
G37*
G36*
X356980D02*
X354155D01*
X354205Y51485D01*
X354543Y50667D01*
X355082Y49964D01*
X355785Y49425D01*
X356603Y49086D01*
X356980Y49037D01*
Y51862D01*
D02*
G37*
G36*
X338165Y55724D02*
X331441D01*
Y49000D01*
X338165D01*
Y55724D01*
D02*
G37*
G36*
X349606Y55753D02*
X348729Y55638D01*
X347911Y55299D01*
X347208Y54760D01*
X346669Y54058D01*
X346331Y53240D01*
X346215Y52362D01*
X346331Y51485D01*
X346669Y50667D01*
X347208Y49964D01*
X347911Y49425D01*
X348729Y49086D01*
X349606Y48971D01*
X350484Y49086D01*
X351302Y49425D01*
X352004Y49964D01*
X352543Y50667D01*
X352882Y51485D01*
X352997Y52362D01*
X352882Y53240D01*
X352543Y54058D01*
X352004Y54760D01*
X351302Y55299D01*
X350484Y55638D01*
X349606Y55753D01*
D02*
G37*
G36*
X324803D02*
X323925Y55638D01*
X323108Y55299D01*
X322405Y54760D01*
X321866Y54058D01*
X321528Y53240D01*
X321412Y52362D01*
X321528Y51485D01*
X321866Y50667D01*
X322405Y49964D01*
X323108Y49425D01*
X323925Y49086D01*
X324803Y48971D01*
X325681Y49086D01*
X326499Y49425D01*
X327201Y49964D01*
X327740Y50667D01*
X328079Y51485D01*
X328194Y52362D01*
X328079Y53240D01*
X327740Y54058D01*
X327201Y54760D01*
X326499Y55299D01*
X325681Y55638D01*
X324803Y55753D01*
D02*
G37*
G36*
X108949Y49106D02*
X106024D01*
X106077Y48703D01*
X106426Y47861D01*
X106981Y47138D01*
X107704Y46583D01*
X108545Y46235D01*
X108949Y46182D01*
Y49106D01*
D02*
G37*
G36*
X112873D02*
X109949D01*
Y46182D01*
X110352Y46235D01*
X111194Y46583D01*
X111917Y47138D01*
X112472Y47861D01*
X112820Y48703D01*
X112873Y49106D01*
D02*
G37*
G36*
X156693Y53097D02*
X155789Y52978D01*
X154948Y52629D01*
X154225Y52074D01*
X153670Y51351D01*
X153321Y50510D01*
X153202Y49606D01*
X153321Y48703D01*
X153670Y47861D01*
X154225Y47138D01*
X154948Y46583D01*
X155789Y46235D01*
X156693Y46116D01*
X157596Y46235D01*
X158438Y46583D01*
X159161Y47138D01*
X159716Y47861D01*
X160064Y48703D01*
X160183Y49606D01*
X160064Y50510D01*
X159716Y51351D01*
X159161Y52074D01*
X158438Y52629D01*
X157596Y52978D01*
X156693Y53097D01*
D02*
G37*
G36*
X32890Y39189D02*
X24591D01*
Y30890D01*
X32890D01*
Y39189D01*
D02*
G37*
G36*
X11024Y39225D02*
X9940Y39082D01*
X8931Y38664D01*
X8064Y37999D01*
X7399Y37132D01*
X6981Y36123D01*
X6838Y35039D01*
X6981Y33956D01*
X7399Y32947D01*
X8064Y32080D01*
X8931Y31415D01*
X9940Y30997D01*
X11024Y30854D01*
X12107Y30997D01*
X13116Y31415D01*
X13983Y32080D01*
X14648Y32947D01*
X15066Y33956D01*
X15209Y35039D01*
X15066Y36123D01*
X14648Y37132D01*
X13983Y37999D01*
X13116Y38664D01*
X12107Y39082D01*
X11024Y39225D01*
D02*
G37*
G36*
X109949Y33346D02*
Y30421D01*
X112873D01*
X112820Y30825D01*
X112472Y31666D01*
X111917Y32389D01*
X111194Y32944D01*
X110352Y33293D01*
X109949Y33346D01*
D02*
G37*
G36*
X108949Y33346D02*
X108545Y33293D01*
X107704Y32944D01*
X106981Y32389D01*
X106426Y31666D01*
X106077Y30825D01*
X106024Y30421D01*
X108949D01*
Y33346D01*
D02*
G37*
G36*
Y29421D02*
X106024D01*
X106077Y29018D01*
X106426Y28176D01*
X106981Y27453D01*
X107704Y26898D01*
X108545Y26550D01*
X108949Y26497D01*
Y29421D01*
D02*
G37*
G36*
X112873D02*
X109949D01*
Y26497D01*
X110352Y26550D01*
X111194Y26898D01*
X111917Y27453D01*
X112472Y28176D01*
X112820Y29018D01*
X112873Y29421D01*
D02*
G37*
G36*
X156693Y33412D02*
X155789Y33293D01*
X154948Y32944D01*
X154225Y32389D01*
X153670Y31666D01*
X153321Y30825D01*
X153202Y29921D01*
X153321Y29018D01*
X153670Y28176D01*
X154225Y27453D01*
X154948Y26898D01*
X155789Y26550D01*
X156693Y26431D01*
X157596Y26550D01*
X158438Y26898D01*
X159161Y27453D01*
X159716Y28176D01*
X160064Y29018D01*
X160183Y29921D01*
X160064Y30825D01*
X159716Y31666D01*
X159161Y32389D01*
X158438Y32944D01*
X157596Y33293D01*
X156693Y33412D01*
D02*
G37*
G36*
X251590Y11827D02*
X248138D01*
Y8374D01*
X251590D01*
Y11827D01*
D02*
G37*
G36*
X247138D02*
X243685D01*
Y8374D01*
X247138D01*
Y11827D01*
D02*
G37*
G36*
X28740Y13634D02*
X27657Y13492D01*
X26647Y13073D01*
X25781Y12408D01*
X25115Y11541D01*
X24697Y10532D01*
X24555Y9449D01*
X24697Y8366D01*
X25115Y7356D01*
X25781Y6489D01*
X26647Y5824D01*
X27657Y5406D01*
X28740Y5263D01*
X29823Y5406D01*
X30833Y5824D01*
X31700Y6489D01*
X32365Y7356D01*
X32783Y8366D01*
X32926Y9449D01*
X32783Y10532D01*
X32365Y11541D01*
X31700Y12408D01*
X30833Y13073D01*
X29823Y13492D01*
X28740Y13634D01*
D02*
G37*
G36*
X11024D02*
X9940Y13492D01*
X8931Y13073D01*
X8064Y12408D01*
X7399Y11541D01*
X6981Y10532D01*
X6838Y9449D01*
X6981Y8366D01*
X7399Y7356D01*
X8064Y6489D01*
X8931Y5824D01*
X9940Y5406D01*
X11024Y5263D01*
X12107Y5406D01*
X13116Y5824D01*
X13983Y6489D01*
X14648Y7356D01*
X15066Y8366D01*
X15209Y9449D01*
X15066Y10532D01*
X14648Y11541D01*
X13983Y12408D01*
X13116Y13073D01*
X12107Y13492D01*
X11024Y13634D01*
D02*
G37*
G36*
X372063Y11827D02*
X364158D01*
Y3921D01*
X372063D01*
Y11827D01*
D02*
G37*
G36*
X251590Y7374D02*
X248138D01*
Y3921D01*
X251590D01*
Y7374D01*
D02*
G37*
G36*
X247138D02*
X243685D01*
Y3921D01*
X247138D01*
Y7374D01*
D02*
G37*
G36*
X277638Y11861D02*
X276606Y11725D01*
X275644Y11327D01*
X274819Y10693D01*
X274185Y9867D01*
X273787Y8906D01*
X273651Y7874D01*
X273787Y6842D01*
X274185Y5881D01*
X274819Y5055D01*
X275644Y4421D01*
X276606Y4023D01*
X277638Y3887D01*
X278670Y4023D01*
X279631Y4421D01*
X280457Y5055D01*
X281090Y5881D01*
X281489Y6842D01*
X281625Y7874D01*
X281489Y8906D01*
X281090Y9867D01*
X280457Y10693D01*
X279631Y11327D01*
X278670Y11725D01*
X277638Y11861D01*
D02*
G37*
%LPD*%
D10*
X208465Y109252D02*
D03*
Y107283D02*
D03*
Y105315D02*
D03*
Y103347D02*
D03*
Y101378D02*
D03*
Y99410D02*
D03*
Y97441D02*
D03*
Y95472D02*
D03*
Y93504D02*
D03*
Y91535D02*
D03*
Y89567D02*
D03*
Y87598D02*
D03*
X240354D02*
D03*
Y89567D02*
D03*
Y91535D02*
D03*
Y93504D02*
D03*
Y95472D02*
D03*
Y97441D02*
D03*
Y99410D02*
D03*
Y101378D02*
D03*
Y103347D02*
D03*
Y105315D02*
D03*
Y107283D02*
D03*
Y109252D02*
D03*
D11*
X213583Y82480D02*
D03*
X215551D02*
D03*
X217520D02*
D03*
X219488D02*
D03*
X221457D02*
D03*
X223425D02*
D03*
X225394D02*
D03*
X227362D02*
D03*
X229331D02*
D03*
X231299D02*
D03*
X233268D02*
D03*
X235236D02*
D03*
Y114370D02*
D03*
X233268D02*
D03*
X231299D02*
D03*
X229331D02*
D03*
X227362D02*
D03*
X225394D02*
D03*
X223425D02*
D03*
X221457D02*
D03*
X219488D02*
D03*
X217520D02*
D03*
X215551D02*
D03*
X213583D02*
D03*
D12*
X342126Y33465D02*
X358110Y17480D01*
X322835Y33465D02*
X342126D01*
X287795Y68504D02*
X322835Y33465D01*
X358110Y7874D02*
Y17480D01*
X321654Y30315D02*
X333228D01*
X348110Y15433D01*
Y7874D02*
Y15433D01*
X287795Y68504D02*
Y78740D01*
X267126Y99410D02*
X287795Y78740D01*
X265945Y97441D02*
X285039Y78347D01*
Y66929D02*
Y78347D01*
Y66929D02*
X321654Y30315D01*
X240354Y99410D02*
X267126D01*
X240354Y97441D02*
X265945D01*
X256102Y95472D02*
X270472Y81102D01*
X254134Y93504D02*
X268110Y79527D01*
X118898Y148819D02*
X153543D01*
X113386Y154331D02*
X118898Y148819D01*
X113386Y154331D02*
Y185039D01*
X109291Y189134D02*
X113386Y185039D01*
X105276Y189134D02*
X109291D01*
X263779Y168504D02*
X299606D01*
X260630Y165354D02*
X263779Y168504D01*
X260630Y114173D02*
Y165354D01*
X251772Y105315D02*
X260630Y114173D01*
X299606Y168504D02*
X312835Y181732D01*
Y188976D01*
X262205Y171653D02*
X298425D01*
X257087Y166535D02*
X262205Y171653D01*
X257087Y130315D02*
Y166535D01*
X298425Y171653D02*
X302835Y176063D01*
X249213Y122441D02*
X257087Y130315D01*
X237008Y122441D02*
X249213D01*
X302835Y176063D02*
Y188976D01*
X251969Y134252D02*
Y139764D01*
X244094Y126378D02*
X251969Y134252D01*
X235827Y126378D02*
X244094D01*
X248228Y107283D02*
X254331Y113386D01*
Y118504D01*
X240354Y105315D02*
X251772D01*
X168898Y42520D02*
X179134D01*
X197244Y60630D01*
Y89673D01*
X200803Y93232D01*
X208193D01*
X208465Y93504D01*
X177165Y52362D02*
X183465D01*
X195307Y64205D01*
Y93823D01*
X196957Y95472D01*
X208465D01*
X193701Y94488D02*
X196653Y97441D01*
X193701Y88189D02*
Y94488D01*
X189370Y83858D02*
X193701Y88189D01*
X165748Y75748D02*
Y89370D01*
X168898Y92520D01*
X177362Y87992D02*
X181890Y92520D01*
X177559Y75748D02*
Y87795D01*
X181890Y92520D02*
X188189D01*
X188976Y75984D02*
X189370Y76378D01*
Y83858D01*
X196653Y97441D02*
X208465D01*
X172638Y101378D02*
X208465D01*
X168898Y97638D02*
X172638Y101378D01*
X168898Y92520D02*
Y97638D01*
X190354Y99410D02*
X208465D01*
X188189Y97244D02*
X190354Y99410D01*
X188189Y92520D02*
Y97244D01*
X198425Y162598D02*
X207087Y153937D01*
X194488Y162598D02*
X198425D01*
X109449Y115354D02*
X109843Y115748D01*
X94488Y115354D02*
X109449D01*
X157087Y115748D02*
Y124409D01*
X168898Y136221D01*
X254724Y66142D02*
Y67323D01*
X250394Y71653D02*
X254724Y67323D01*
X204331Y129921D02*
Y134646D01*
Y125197D02*
Y129921D01*
X213583Y120669D01*
Y114370D02*
Y120669D01*
X207087Y132283D02*
Y153937D01*
Y132283D02*
X215551Y123819D01*
Y114370D02*
Y123819D01*
X245276Y78347D02*
X245276Y78347D01*
X242126Y78347D02*
X245276D01*
X239764Y75984D02*
X242126Y78347D01*
X238976Y71653D02*
X250394D01*
X247047Y87598D02*
X259842Y74803D01*
X248228Y89567D02*
X262992Y74803D01*
X251455Y91264D02*
X265354Y77365D01*
X267638Y7874D02*
Y42992D01*
X241339Y69291D02*
X267638Y42992D01*
X238189Y69291D02*
X241339D01*
X239764Y67323D02*
X259842Y47244D01*
Y20472D02*
Y47244D01*
X257638Y7874D02*
Y18268D01*
X259842Y20472D01*
X237008Y67323D02*
X239764D01*
X229602Y74728D02*
X237008Y67323D01*
X245081Y53738D02*
X252362Y46457D01*
X245081Y53738D02*
Y55512D01*
X227362Y73231D02*
X245081Y55512D01*
X233402Y60548D02*
Y63055D01*
X223425Y68701D02*
X231795Y60331D01*
Y51918D02*
Y60331D01*
X233071Y7874D02*
Y38583D01*
X221457Y50197D02*
X233071Y38583D01*
X225394Y71063D02*
X233402Y63055D01*
X237795Y75984D02*
X239764D01*
X235236Y78543D02*
X237795Y75984D01*
X235236Y78543D02*
Y82480D01*
X233268Y77362D02*
X238976Y71653D01*
X233268Y77362D02*
Y82480D01*
X231299Y76181D02*
X238189Y69291D01*
X231299Y76181D02*
Y82480D01*
X229602Y74728D02*
Y82209D01*
X227362Y73231D02*
Y82480D01*
X225394Y71063D02*
Y82480D01*
X240354Y87598D02*
X247047D01*
X246896Y110282D02*
Y114173D01*
X245866Y109252D02*
X246896Y110282D01*
X240354Y107283D02*
X248228D01*
X240354Y109252D02*
X245866D01*
X156693Y134646D02*
Y140945D01*
X158661Y142913D01*
X196063D01*
X204331Y134646D01*
X168898Y136221D02*
X194488D01*
X204331Y125197D02*
X206299Y123228D01*
Y114567D02*
Y123228D01*
X204438Y112705D02*
X206299Y114567D01*
X204438Y110370D02*
Y112705D01*
Y110370D02*
X205556Y109252D01*
X208465D01*
X202362Y123327D02*
X203937Y121752D01*
Y114862D02*
Y121752D01*
X202362Y113287D02*
X203937Y114862D01*
X202362Y123327D02*
Y128347D01*
Y108268D02*
Y113287D01*
X194488Y136221D02*
X202362Y128347D01*
Y108268D02*
X203346Y107283D01*
X208465D01*
X200197Y105315D02*
X208465D01*
X199213Y106299D02*
X200197Y105315D01*
X199213Y106299D02*
Y117717D01*
X199409Y103347D02*
X208465D01*
X196063Y106693D02*
X199409Y103347D01*
X196063Y106693D02*
Y117717D01*
X210236Y131587D02*
Y177559D01*
X207559Y180236D02*
X210236Y177559D01*
X207559Y180236D02*
Y188976D01*
X210236Y131587D02*
X217520Y124303D01*
X212992Y132677D02*
Y177717D01*
X217559Y182283D01*
Y188976D01*
X212992Y132677D02*
X219488Y126181D01*
X230315Y136221D02*
Y151181D01*
X221359Y160137D02*
X230315Y151181D01*
X220866Y172441D02*
X220866D01*
X225984Y167323D01*
X220472Y149213D02*
X220866D01*
X228346Y141732D01*
X229953Y135858D02*
X230315Y136221D01*
X229953Y135555D02*
Y135858D01*
X223425Y129028D02*
X229953Y135555D01*
X223425Y114370D02*
Y129028D01*
X228346Y136221D02*
Y141732D01*
X221457Y129331D02*
X228346Y136221D01*
X232677Y135433D02*
Y160630D01*
X225984Y167323D02*
X232677Y160630D01*
X225394Y128150D02*
X232677Y135433D01*
X225394Y114370D02*
Y128150D01*
X235039Y134252D02*
Y170079D01*
X227362Y126575D02*
X235039Y134252D01*
X227559Y177559D02*
X235039Y170079D01*
X227362Y114370D02*
Y126575D01*
X221457Y114370D02*
Y129331D01*
X219488Y114370D02*
Y126181D01*
X217520Y114370D02*
Y124303D01*
X237559Y133228D02*
Y188976D01*
X229331Y125000D02*
X237559Y133228D01*
X240717Y134024D02*
X241665D01*
X231299Y124606D02*
X240717Y134024D01*
X231299Y114370D02*
Y124606D01*
X233268Y123819D02*
X235827Y126378D01*
X233268Y114370D02*
Y123819D01*
X235236Y120669D02*
X237008Y122441D01*
X235236Y114370D02*
Y120669D01*
X227559Y177559D02*
Y188976D01*
X241665Y134024D02*
Y164409D01*
X247559Y170303D01*
Y188976D01*
X229331Y114370D02*
Y125000D01*
X240354Y95472D02*
X256102D01*
X322835Y7874D02*
Y18110D01*
X277953Y25591D02*
X283071Y20472D01*
X300787D01*
X274724Y22913D02*
X279921Y17717D01*
X290158D01*
X344488Y77953D02*
X347244Y80709D01*
X340945Y87008D02*
X347244Y80709D01*
X338583Y87008D02*
X340945D01*
X337638Y87953D02*
Y93504D01*
Y87953D02*
X338583Y87008D01*
X332677Y77953D02*
X344488D01*
X309252Y101378D02*
X332677Y77953D01*
X240354Y101378D02*
X309252D01*
X240354Y93504D02*
X254134D01*
X240626Y91264D02*
X251455D01*
X240354Y89567D02*
X248228D01*
X347638Y110236D02*
X352756Y105118D01*
Y95276D02*
Y105118D01*
X350984Y93504D02*
X352756Y95276D01*
X240354Y103347D02*
X326969D01*
X333858Y110236D01*
X345512Y93504D02*
X350984D01*
X312835Y7874D02*
Y20236D01*
X302835Y7874D02*
Y18425D01*
X300787Y20472D02*
X302835Y18425D01*
X292835Y7874D02*
X292913Y7953D01*
Y14961D01*
X290158Y17717D02*
X292913Y14961D01*
X229331Y82480D02*
X229602Y82209D01*
X240354Y91535D02*
X240626Y91264D01*
X199213Y117717D02*
Y120866D01*
X198031Y122047D02*
X199213Y120866D01*
X191732Y122047D02*
X198031D01*
X185039Y115354D02*
X191732Y122047D01*
X175591Y115354D02*
X185039D01*
X170472Y110236D02*
X175591Y115354D01*
X169291Y110236D02*
X170472D01*
X223425Y68701D02*
Y82480D01*
X221457Y50197D02*
Y82480D01*
X219488Y48228D02*
Y82480D01*
Y48228D02*
X223071Y44646D01*
Y7874D02*
Y44646D01*
X217520Y52953D02*
Y82480D01*
X213071Y48504D02*
X217520Y52953D01*
X213071Y7874D02*
Y48504D01*
X215551Y54921D02*
Y82480D01*
X203071Y42441D02*
X215551Y54921D01*
X203071Y7874D02*
Y42441D01*
X213583Y57677D02*
Y82480D01*
X193071Y37165D02*
X213583Y57677D01*
X193071Y7874D02*
Y37165D01*
X183071Y33071D02*
X205906Y55905D01*
X183071Y7874D02*
Y33071D01*
X203543Y56693D02*
Y80709D01*
X173071Y26221D02*
X203543Y56693D01*
X173071Y7874D02*
Y26221D01*
X200787Y58268D02*
Y78347D01*
X163071Y20551D02*
X200787Y58268D01*
X163071Y7874D02*
Y20551D01*
X205315Y87598D02*
X208465D01*
X203937Y86221D02*
X205315Y87598D01*
X203937Y84284D02*
Y86221D01*
Y84284D02*
X205906Y82315D01*
X201969Y82284D02*
Y88189D01*
Y82284D02*
X203543Y80709D01*
X201969Y88189D02*
X203346Y89567D01*
X205906Y55905D02*
Y82315D01*
X199213Y79921D02*
X200787Y78347D01*
X194040Y117717D02*
X196063D01*
X192520Y116196D02*
X194040Y117717D01*
X192520Y113386D02*
Y116196D01*
X189370Y110236D02*
X192520Y113386D01*
X181102Y110236D02*
X189370D01*
X203346Y89567D02*
X208465D01*
X199213Y79921D02*
Y89370D01*
X201378Y91535D01*
X208465D01*
X335433Y110236D02*
Y150394D01*
Y110236D02*
X347638D01*
X333858D02*
X335433D01*
X368268Y171811D02*
Y180315D01*
X364173Y167717D02*
X368268Y171811D01*
X325590Y167717D02*
X364173D01*
X321024Y163150D02*
X325590Y167717D01*
X321024Y120472D02*
Y163150D01*
X299606Y120472D02*
X321024D01*
X321024Y120472D01*
X233402Y60548D02*
X246850Y47099D01*
Y39370D02*
Y47099D01*
X231795Y51918D02*
X239764Y43949D01*
Y34646D02*
Y43949D01*
X268110Y70472D02*
Y79527D01*
X259842Y64173D02*
Y74803D01*
Y64173D02*
X274724Y49291D01*
Y22913D02*
Y49291D01*
X270472Y73228D02*
Y81102D01*
X281496Y27165D02*
X284646Y24016D01*
X285039Y29134D02*
X287008Y27165D01*
X265354Y67323D02*
Y77365D01*
X262992Y64567D02*
Y74803D01*
Y64567D02*
X277953Y49606D01*
Y25591D02*
Y49606D01*
X281496Y27165D02*
Y51181D01*
X265354Y67323D02*
X281496Y51181D01*
X285039Y29134D02*
Y53543D01*
X268110Y70472D02*
X285039Y53543D01*
X270472Y73228D02*
X288583Y55118D01*
X284646Y24016D02*
X309055D01*
X312835Y20236D01*
X287008Y27165D02*
X313779D01*
X322835Y18110D01*
X288583Y31102D02*
Y55118D01*
Y31102D02*
X289764Y29921D01*
X331302Y25197D02*
X338110Y18388D01*
Y7874D02*
Y18388D01*
X289764Y29921D02*
X314961D01*
X319685Y25197D01*
X331302D01*
X95276Y189134D02*
X105276D01*
D13*
X109449Y49606D02*
D03*
X156693D02*
D03*
X109449Y29921D02*
D03*
X156693D02*
D03*
X321024Y120472D02*
D03*
Y73228D02*
D03*
X299606Y120472D02*
D03*
Y73228D02*
D03*
X278346Y73228D02*
D03*
Y120473D02*
D03*
X288189Y150394D02*
D03*
X335433D02*
D03*
X109843Y115748D02*
D03*
X157087D02*
D03*
X109449Y134646D02*
D03*
X156693D02*
D03*
X153543Y148819D02*
D03*
X200787D02*
D03*
D14*
X188976Y75984D02*
D03*
Y65984D02*
D03*
X177559Y65748D02*
D03*
Y75748D02*
D03*
X165748Y65748D02*
D03*
Y75748D02*
D03*
X98425Y75354D02*
D03*
Y65354D02*
D03*
X349606Y52362D02*
D03*
X357480D02*
D03*
X111417Y65354D02*
D03*
Y75354D02*
D03*
X124409Y65354D02*
D03*
Y75354D02*
D03*
X138189Y65354D02*
D03*
Y75354D02*
D03*
X152362Y65354D02*
D03*
Y75354D02*
D03*
X83465Y65354D02*
D03*
Y75354D02*
D03*
X140157Y161417D02*
D03*
Y171417D02*
D03*
X126136Y161417D02*
D03*
Y171417D02*
D03*
X169291Y110236D02*
D03*
Y120236D02*
D03*
X94488Y115354D02*
D03*
X168898Y92520D02*
D03*
X188189D02*
D03*
X324803Y52362D02*
D03*
X181102Y110236D02*
D03*
Y120236D02*
D03*
D15*
X338110Y7874D02*
D03*
X348110D02*
D03*
X358110D02*
D03*
X312835Y188976D02*
D03*
X302835D02*
D03*
X292835D02*
D03*
X267559D02*
D03*
X257559D02*
D03*
X247559D02*
D03*
X237559D02*
D03*
X227559D02*
D03*
X217559D02*
D03*
X207559D02*
D03*
X105276Y189134D02*
D03*
Y179134D02*
D03*
X95276Y189134D02*
D03*
X182126Y188976D02*
D03*
X172126D02*
D03*
X162126D02*
D03*
X388976Y150787D02*
D03*
X312835Y7874D02*
D03*
X302835D02*
D03*
X292835D02*
D03*
X257638D02*
D03*
X267638D02*
D03*
X277638D02*
D03*
X223071D02*
D03*
X213071D02*
D03*
X203071D02*
D03*
X193071D02*
D03*
X183071D02*
D03*
X173071D02*
D03*
X163071D02*
D03*
D16*
X368110D02*
D03*
X322835Y188976D02*
D03*
X277559D02*
D03*
X95276Y179134D02*
D03*
X192126Y188976D02*
D03*
X348976Y150787D02*
D03*
X322835Y7874D02*
D03*
X247638D02*
D03*
X233071D02*
D03*
D17*
X377165Y51968D02*
D03*
X383071D02*
D03*
D18*
X84488Y115354D02*
D03*
X334803Y52362D02*
D03*
D19*
X356181Y74724D02*
D03*
Y122126D02*
D03*
D20*
X337638Y103347D02*
D03*
D21*
Y93504D02*
D03*
X345512D02*
D03*
Y103347D02*
D03*
D22*
X11024Y9449D02*
D03*
Y35039D02*
D03*
X28740Y9449D02*
D03*
D23*
Y35039D02*
D03*
D24*
X358268Y180315D02*
D03*
D25*
X368268D02*
D03*
X378268D02*
D03*
D26*
X196063Y117717D02*
D03*
X199213D02*
D03*
D27*
X251969Y139764D02*
D03*
X254331Y118504D02*
D03*
X168898Y42520D02*
D03*
X177165Y52362D02*
D03*
X194488Y162598D02*
D03*
X254724Y66142D02*
D03*
X245276Y78347D02*
D03*
X252362Y46457D02*
D03*
X246896Y114173D02*
D03*
X220866Y172441D02*
D03*
X221359Y160137D02*
D03*
X220866Y149213D02*
D03*
X246850Y39370D02*
D03*
X239764Y34646D02*
D03*
M02*
