G04 Layer_Color=16711935*
%FSLAX25Y25*%
%MOIN*%
G70*
G01*
G75*
%ADD29C,0.00787*%
%ADD53C,0.00394*%
D29*
X120493Y55506D02*
X145893D01*
X120493Y43806D02*
Y55506D01*
Y43806D02*
X145893D01*
Y55506D01*
X145870Y49606D02*
X151593D01*
X114670D02*
X120393D01*
X120493Y35821D02*
X145893D01*
X120493Y24121D02*
Y35821D01*
Y24121D02*
X145893D01*
Y35821D01*
X145870Y29921D02*
X151593D01*
X114670D02*
X120393D01*
X326924Y84028D02*
Y109428D01*
X315224D02*
X326924D01*
X315224Y84028D02*
Y109428D01*
Y84028D02*
X326924D01*
X321024Y78328D02*
Y84051D01*
Y109528D02*
Y115251D01*
X305506Y84028D02*
Y109428D01*
X293806D02*
X305506D01*
X293806Y84028D02*
Y109428D01*
Y84028D02*
X305506D01*
X299606Y78328D02*
Y84051D01*
Y109528D02*
Y115251D01*
X272446Y84272D02*
Y109672D01*
Y84272D02*
X284146D01*
Y109672D01*
X272446D02*
X284146D01*
X278346Y109650D02*
Y115373D01*
Y78450D02*
Y84172D01*
X299233Y156294D02*
X324633D01*
X299233Y144594D02*
Y156294D01*
Y144594D02*
X324633D01*
Y156294D01*
X324610Y150394D02*
X330333D01*
X293410D02*
X299133D01*
X120887Y121648D02*
X146287D01*
X120887Y109948D02*
Y121648D01*
Y109948D02*
X146287D01*
Y121648D01*
X146264Y115748D02*
X151987D01*
X115064D02*
X120787D01*
X120493Y140546D02*
X145893D01*
X120493Y128846D02*
Y140546D01*
Y128846D02*
X145893D01*
Y140546D01*
X145870Y134646D02*
X151593D01*
X114670D02*
X120393D01*
X164587Y154719D02*
X189987D01*
X164587Y143019D02*
Y154719D01*
Y143019D02*
X189987D01*
Y154719D01*
X189965Y148819D02*
X195687D01*
X158765D02*
X164487D01*
D53*
X139493Y51406D02*
Y48651D01*
X138115D01*
X137656Y49110D01*
Y50029D01*
X138115Y50488D01*
X139493D01*
X138575D02*
X137656Y51406D01*
X136738Y50947D02*
X136279Y51406D01*
X135360D01*
X134901Y50947D01*
Y49110D01*
X135360Y48651D01*
X136279D01*
X136738Y49110D01*
Y49570D01*
X136279Y50029D01*
X134901D01*
X139493Y31721D02*
Y28966D01*
X138115D01*
X137656Y29425D01*
Y30344D01*
X138115Y30803D01*
X139493D01*
X138575D02*
X137656Y31721D01*
X136738Y29425D02*
X136279Y28966D01*
X135360D01*
X134901Y29425D01*
Y29885D01*
X135360Y30344D01*
X134901Y30803D01*
Y31262D01*
X135360Y31721D01*
X136279D01*
X136738Y31262D01*
Y30803D01*
X136279Y30344D01*
X136738Y29885D01*
Y29425D01*
X136279Y30344D02*
X135360D01*
X322824Y90428D02*
X320069D01*
Y91806D01*
X320528Y92265D01*
X321446D01*
X321905Y91806D01*
Y90428D01*
Y91347D02*
X322824Y92265D01*
Y93183D02*
Y94102D01*
Y93642D01*
X320069D01*
X320528Y93183D01*
X301406Y90428D02*
X298651D01*
Y91806D01*
X299110Y92265D01*
X300029D01*
X300488Y91806D01*
Y90428D01*
Y91347D02*
X301406Y92265D01*
Y95020D02*
Y93183D01*
X299570Y95020D01*
X299110D01*
X298651Y94561D01*
Y93642D01*
X299110Y93183D01*
X276546Y103272D02*
X279302D01*
Y101895D01*
X278842Y101436D01*
X277924D01*
X277465Y101895D01*
Y103272D01*
Y102354D02*
X276546Y101436D01*
X278842Y100517D02*
X279302Y100058D01*
Y99140D01*
X278842Y98681D01*
X278383D01*
X277924Y99140D01*
Y99599D01*
Y99140D01*
X277465Y98681D01*
X277006D01*
X276546Y99140D01*
Y100058D01*
X277006Y100517D01*
X139887Y117548D02*
Y114793D01*
X138509D01*
X138050Y115252D01*
Y116171D01*
X138509Y116630D01*
X139887D01*
X138968D02*
X138050Y117548D01*
X137132Y114793D02*
X135295D01*
Y115252D01*
X137132Y117089D01*
Y117548D01*
X137656Y133691D02*
X139493D01*
Y135068D01*
X138575D01*
X139493D01*
Y136446D01*
X136738Y133691D02*
Y136446D01*
X135360D01*
X134901Y135986D01*
Y135527D01*
X135360Y135068D01*
X136738D01*
X135360D01*
X134901Y134609D01*
Y134150D01*
X135360Y133691D01*
X136738D01*
X133983Y136446D02*
X133064D01*
X133524D01*
Y133691D01*
X133983Y134150D01*
X183587Y150619D02*
Y147864D01*
X182210D01*
X181751Y148323D01*
Y149241D01*
X182210Y149701D01*
X183587D01*
X182669D02*
X181751Y150619D01*
X179455D02*
Y147864D01*
X180832Y149241D01*
X178996D01*
M02*
