M48
;Layer_Color=9474304
;FILE_FORMAT=2:5
INCH,LZ
;TYPE=PLATED
T1F00S00C0.01378
T2F00S00C0.02362
T3F00S00C0.02756
T4F00S00C0.02800
T5F00S00C0.03543
T6F00S00C0.03622
T7F00S00C0.04724
T8F00S00C0.09055
%
T01
X0196063Y0117717
X0199213
T02
X0188189Y009252
X0168898
T03
X0349606Y0052362
X035748
X0377165Y0051968
X0383071
X0334803Y0052362
X0324803
X0188976Y0065984
Y0075984
X0177559Y0075748
Y0065748
X0165748
Y0075748
X0152362Y0075354
Y0065354
X0138189
Y0075354
X0124409Y0075354
Y0065354
X0111417
Y0075354
X0098425
Y0065354
X0083465
Y0075354
X0084488Y0115354
X0094488
X0126136Y0161417
Y0171417
X0140157
Y0161417
X0169291Y0120236
Y0110236
X0181102
Y0120236
T04
X0168898Y004252
X0239764Y0034646
X024685Y003937
X0252362Y0046457
X0254724Y0066142
X0245276Y0078347
X0246896Y0114173
X0254331Y0118504
X0251969Y0139764
X0220866Y0149213
X0221359Y0160137
X0220866Y0172441
X0194488Y0162598
X0177165Y0052362
T05
X0109449Y0029921
X0156693
X0163071Y0007874
X0173071
X0183071
X0193071
X0203071
X0213071
X0223071
X0233071
X0247638
X0257638
X0267638
X0277638
X0292835
X0302835
X0312835
X0322835
X033811
X034811
X035811
X036811
X0348976Y0150787
X0388976
X0335433Y0150394
X0321024Y0120472
X0299606Y0120472
X0278346Y0120473
X0288189Y0150394
X0292835Y0188976
X0302835
X0312835
X0322835
X0277559
X0267559
X0257559
X0247559
X0237559
X0227559
X0217559
X0207559
X0192126
X0200787Y0148819
X0278346Y0073228
X0299606Y0073228
X0321024Y0073228
X0156693Y0049606
X0109449
X0109843Y0115748
X0109449Y0134646
X0156693
X0153543Y0148819
X0157087Y0115748
X0162126Y0188976
X0172126
X0182126
X0105276Y0189134
Y0179134
X0095276
Y0189134
T06
X0345512Y0093504
Y0103347
X0337638
Y0093504
T07
X0011024Y0009449
X002874
Y0035039
X0011024
X0358268Y0180315
X0368268
X0378268
T08
X0356181Y0074724
Y0122126
M30
